<svg width="500" height="372" viewBox="0 0 500 372" fill="none" xmlns="http://www.w3.org/2000/svg">
<g clip-path="url(#clip0_1651_12275)">
<path d="M500 326.873H0V327.073H500V326.873Z" fill="#EBEBEB"/>
<path d="M449.9 342.947H416.8V343.147H449.9V342.947Z" fill="#EBEBEB"/>
<path d="M331.2 345.742H322.5V345.942H331.2V345.742Z" fill="#EBEBEB"/>
<path d="M415.8 333.762H396.6V333.962H415.8V333.762Z" fill="#EBEBEB"/>
<path d="M95.7 335.359H52.5V335.559H95.7V335.359Z" fill="#EBEBEB"/>
<path d="M110.9 335.359H104.6V335.559H110.9V335.359Z" fill="#EBEBEB"/>
<path d="M225.2 339.652H131.5V339.852H225.2V339.652Z" fill="#EBEBEB"/>
<path d="M237 282.345H43.9C40.8 282.345 38.2 279.749 38.2 276.654V5.69082C38.2 2.59581 40.8 0 43.9 0H237C240.1 0 242.7 2.59581 242.7 5.69082V276.654C242.7 279.849 240.2 282.345 237 282.345ZM43.9 0.199678C40.9 0.199678 38.4 2.59581 38.4 5.69082V276.654C38.4 279.649 40.8 282.145 43.9 282.145H237C240 282.145 242.5 279.749 242.5 276.654V5.69082C242.5 2.69565 240.1 0.199678 237 0.199678H43.9Z" fill="#EBEBEB"/>
<path d="M453.3 282.345H260.2C257.1 282.345 254.5 279.749 254.5 276.654V5.69082C254.5 2.59581 257.1 0 260.2 0H453.3C456.4 0 459 2.59581 459 5.69082V276.654C459 279.849 456.5 282.345 453.3 282.345ZM260.2 0.199678C257.2 0.199678 254.7 2.59581 254.7 5.69082V276.654C254.7 279.649 257.1 282.145 260.2 282.145H453.3C456.3 282.145 458.8 279.749 458.8 276.654V5.69082C458.8 2.69565 456.4 0.199678 453.3 0.199678H260.2Z" fill="#EBEBEB"/>
<path d="M192.5 39.0371C192.5 36.3414 194.7 34.2448 197.3 34.2448C197.8 34.2448 198.2 34.3446 198.7 34.4445C198.6 33.9453 198.6 33.4461 198.6 32.9469C198.6 27.3559 203.2 22.7633 208.8 22.7633C209.4 22.7633 210.1 22.8632 210.7 22.963C212.3 20.3672 215.1 18.6699 218.3 18.6699C223.2 18.6699 227.2 22.5636 227.2 27.4558C227.3 27.4558 227.3 27.4558 227.3 27.4558C231.9 27.4558 235.5 31.1498 235.5 35.6425C235.5 40.2351 231.8 43.8293 227.3 43.8293H197C194.6 43.7295 192.5 41.6329 192.5 39.0371Z" fill="#F5F5F5"/>
<path d="M263.5 75.6775C263.5 74.3796 264.6 73.2814 265.9 73.2814C266.1 73.2814 266.4 73.2814 266.6 73.3812C266.6 73.1815 266.5 72.882 266.5 72.6823C266.5 69.8868 268.8 67.5905 271.6 67.5905C271.9 67.5905 272.2 67.5905 272.5 67.6904C273.3 66.3925 274.7 65.5938 276.3 65.5938C278.7 65.5938 280.7 67.5905 280.8 69.9867C280.8 69.9867 280.8 69.9867 280.9 69.9867C283.2 69.9867 285 71.7838 285 74.0801C285 76.3764 283.2 78.1735 280.9 78.1735H265.8C264.6 77.9738 263.5 76.9754 263.5 75.6775Z" fill="#F5F5F5"/>
<path d="M397 144.866C397 143.568 398.1 142.47 399.4 142.47C399.6 142.47 399.9 142.47 400.1 142.57C400.1 142.37 400 142.07 400 141.871C400 139.075 402.3 136.779 405.1 136.779C405.4 136.779 405.7 136.779 406 136.879C406.8 135.581 408.2 134.782 409.8 134.782C412.2 134.782 414.2 136.779 414.3 139.175C414.3 139.175 414.3 139.175 414.4 139.175C416.7 139.175 418.5 140.972 418.5 143.269C418.5 145.565 416.7 147.362 414.4 147.362H399.3C398 147.262 397 146.264 397 144.866Z" fill="#F5F5F5"/>
<path d="M70.8 145.865C70.8 144.567 71.9 143.469 73.2 143.469C73.4 143.469 73.7 143.469 73.9 143.569C73.9 143.369 73.8 143.07 73.8 142.87C73.8 140.074 76.1 137.778 78.9 137.778C79.2 137.778 79.5 137.778 79.8 137.878C80.6 136.58 82 135.781 83.6 135.781C86 135.781 88 137.778 88.1 140.174C88.1 140.174 88.1 140.174 88.2 140.174C90.5 140.174 92.3 141.971 92.3 144.268C92.3 146.564 90.5 148.361 88.2 148.361H73.1C71.8 148.261 70.8 147.163 70.8 145.865Z" fill="#F5F5F5"/>
<path d="M325.1 39.237C325.1 37.5398 326.5 36.0422 328.3 36.0422C328.6 36.0422 328.9 36.0422 329.2 36.142C329.2 35.8425 329.1 35.543 329.1 35.1437C329.1 31.4496 332.1 28.4544 335.8 28.4544C336.2 28.4544 336.6 28.4544 337 28.5543C338 26.857 339.9 25.7588 342 25.7588C345.2 25.7588 347.8 28.3546 347.9 31.5495H348C351 31.5495 353.4 33.9456 353.4 36.9408C353.4 39.9359 351 42.3321 348 42.3321H328.2C326.4 42.3321 325.1 40.9343 325.1 39.237Z" fill="#F5F5F5"/>
<path d="M88.4 115.114C88.2 114.515 88.2 113.916 88.1 113.217C87.9 109.324 84.2 109.923 81 109.423C78.5 109.024 85.1 102.734 80.1 100.737C79.2 100.338 78.2 99.9387 77.7 99.0401C77.1 97.8421 77.7 96.3445 78.8 95.5458C79.9 94.7471 81.3 94.6472 82.6 94.6472C83.4 93.6488 82.8 92.1513 82 91.1529C81.2 90.1545 80.3 88.9564 80.5 87.7583C81 85.8614 83.6 85.8614 85.5 86.1609C86.2 85.0627 86.2 83.5651 86.5 82.367C86.8 81.0691 87.9 79.7712 89.2 79.8711C90.4 80.0707 91.2 81.4685 92.4 81.6682C93.8 81.9677 95.1 80.7696 96.2 79.7712C97.3 78.8727 99.3 78.2736 100 79.4717C100.5 80.1706 100.2 81.2688 100.7 81.9677C101.5 83.2656 103.5 82.4669 104.7 81.5683C105.9 80.6698 107.9 79.8711 108.7 81.0691C109 81.4685 109 81.9677 109.2 82.367C109.8 84.0643 111.6 84.863 113 85.9612C114.4 87.0595 115.5 89.1561 114.3 90.454C113.7 91.053 112.7 91.3525 112.4 92.1513C112 93.1496 113.1 94.0482 113.9 94.7471C115.3 95.9451 115.5 99.4395 113.7 100.338C112.9 100.737 111.8 100.837 111.6 101.736C111.4 102.535 112.2 103.034 112.7 103.633C114.1 105.23 113.5 108.125 111.6 109.024C111.2 109.224 110.6 109.423 110.5 109.823C110.4 110.122 110.5 110.522 110.6 110.821C110.8 111.42 110.8 112.119 110.8 112.818C110.8 113.018 110.7 113.317 110.6 113.417C110.4 113.517 110.2 113.617 110 113.617C107.4 113.716 106.1 112.818 104.5 115.114C104.3 115.314 104.2 115.514 104 115.713C103.8 115.813 103.5 115.913 103.3 115.913C101.5 116.013 100.3 114.915 98.7 114.715C96.4 114.415 95.9 115.613 93.9 116.512C90.5 118.209 89 117.211 88.4 115.114Z" fill="#F5F5F5"/>
<path d="M118.7 111.82C118.5 111.221 118.5 110.622 118.4 109.923C118.2 106.03 114.5 106.629 111.3 106.129C108.8 105.73 115.4 99.4402 110.4 97.4434C109.5 97.0441 108.5 96.6447 108 95.7462C107.4 94.5481 108 93.0505 109.1 92.2518C110.2 91.4531 111.6 91.3533 112.9 91.3533C113.7 90.3549 113.1 88.8573 112.3 87.8589C111.5 86.8605 110.6 85.6625 110.8 84.4644C111.3 82.5674 113.9 82.5674 115.8 82.867C116.5 81.7687 116.5 80.2711 116.8 79.0731C117.1 77.7752 118.2 76.4773 119.5 76.5771C120.7 76.7768 121.5 78.1745 122.7 78.3742C124.1 78.6737 125.4 77.4757 126.5 76.4773C127.6 75.5787 129.6 74.9797 130.3 76.1778C130.8 76.8766 130.5 77.9749 131 78.6737C131.8 79.9716 133.8 79.1729 135 78.2744C136.2 77.3758 138.2 76.5771 139 77.7752C139.3 78.1745 139.3 78.6737 139.5 79.0731C140.1 80.7703 141.9 81.5691 143.3 82.6673C144.7 83.7655 145.8 85.8621 144.6 87.16C144 87.7591 143 88.0586 142.7 88.8573C142.3 89.8557 143.4 90.7542 144.2 91.4531C145.6 92.6512 145.8 96.1455 144 97.0441C143.2 97.4434 142.1 97.5433 141.9 98.4418C141.7 99.2406 142.5 99.7397 143 100.339C144.4 101.936 143.8 104.832 141.9 105.73C141.5 105.93 140.9 106.129 140.8 106.529C140.7 106.828 140.8 107.228 140.9 107.527C141.1 108.126 141.1 108.825 141.1 109.524C141.1 109.724 141 110.023 140.9 110.123C140.7 110.223 140.5 110.323 140.3 110.323C137.7 110.423 136.4 109.524 134.8 111.82C134.6 112.02 134.5 112.22 134.3 112.419C134.1 112.519 133.8 112.619 133.6 112.619C131.8 112.719 130.6 111.621 129 111.421C126.7 111.121 126.2 112.319 124.2 113.218C120.8 114.915 119.2 114.017 118.7 111.82Z" fill="#F5F5F5"/>
<path d="M121.6 92.5507C121.4 91.9517 121.4 91.3527 121.3 90.6538C121.1 86.7601 117.4 87.3591 114.2 86.8599C111.7 86.4606 118.3 80.1707 113.3 78.1739C112.4 77.7746 111.4 77.3752 110.9 76.4767C110.3 75.2786 110.9 73.781 112 72.9823C113.1 72.1836 114.5 72.0837 115.8 72.0837C116.6 71.0854 116 69.5878 115.2 68.5894C114.4 67.591 113.5 66.3929 113.7 65.1949C114.1 63.2979 116.8 63.2979 118.7 63.5974C119.4 62.4992 119.4 61.0016 119.7 59.8036C120 58.5056 121.1 57.2077 122.4 57.3076C123.6 57.5073 124.4 58.905 125.6 59.1047C127 59.4042 128.3 58.2061 129.4 57.2077C130.5 56.3092 132.5 55.7102 133.2 56.9082C133.7 57.6071 133.4 58.7053 133.9 59.4042C134.7 60.7021 136.7 59.9034 137.9 59.0048C139.1 58.1063 141.1 57.3076 141.9 58.5056C142.2 58.905 142.2 59.4042 142.4 59.8036C143 61.5008 144.8 62.2995 146.2 63.3978C147.6 64.496 148.7 66.5926 147.5 67.8905C146.9 68.4895 145.9 68.7891 145.6 69.5878C145.2 70.5862 146.3 71.4847 147.1 72.1836C148.5 73.3817 148.7 76.876 146.9 77.7746C146.1 78.1739 145 78.2738 144.8 79.1723C144.6 79.971 145.4 80.4702 145.9 81.0693C147.3 82.6667 146.7 85.562 144.8 86.4606C144.4 86.6602 143.8 86.8599 143.7 87.2593C143.6 87.5588 143.7 87.9581 143.8 88.2577C144 88.8567 144 89.5556 144 90.2544C144 90.4541 143.9 90.7536 143.8 90.8535C143.6 90.9533 143.4 91.0531 143.2 91.0531C140.6 91.153 139.3 90.2544 137.7 92.5507C137.5 92.7504 137.4 92.9501 137.2 93.1498C137 93.2496 136.7 93.3494 136.5 93.3494C134.7 93.4493 133.5 92.3511 131.9 92.1514C129.6 91.8519 129.1 93.0499 127.1 93.9485C123.7 95.6457 122.2 94.7472 121.6 92.5507Z" fill="#F5F5F5"/>
<path d="M141.5 102.136C141.3 101.537 141.3 100.938 141.2 100.239C141 96.345 137.3 96.9441 134.1 96.4449C131.6 96.0455 138.2 89.7557 133.2 87.7589C132.3 87.3595 131.3 86.9602 130.8 86.0616C130.2 84.8636 130.8 83.366 131.9 82.5673C133 81.7685 134.4 81.6687 135.7 81.6687C136.5 80.6703 135.9 79.1727 135.1 78.1743C134.3 77.176 133.4 75.9779 133.6 74.7798C134 72.8829 136.7 72.8829 138.6 73.1824C139.3 72.0842 139.3 70.5866 139.6 69.3885C139.9 68.0906 141 66.7927 142.3 66.8925C143.5 67.0922 144.3 68.49 145.5 68.6896C146.9 68.9892 148.2 67.7911 149.3 66.7927C150.4 65.8942 152.4 65.2951 153.1 66.4932C153.6 67.1921 153.3 68.2903 153.8 68.9892C154.6 70.2871 156.6 69.4883 157.8 68.5898C159 67.6912 161 66.8925 161.8 68.0906C162.1 68.49 162.1 68.9892 162.3 69.3885C162.9 71.0858 164.7 71.8845 166.1 72.9827C167.5 74.0809 168.6 76.1776 167.4 77.4755C166.8 78.0745 165.8 78.374 165.5 79.1727C165.1 80.1711 166.2 81.0697 167 81.7685C168.4 82.9666 168.6 86.461 166.8 87.3595C166 87.7589 164.9 87.8587 164.7 88.7573C164.5 89.556 165.3 90.0552 165.8 90.6542C167.2 92.2516 166.6 95.147 164.7 96.0455C164.3 96.2452 163.7 96.4449 163.6 96.8442C163.5 97.1437 163.6 97.5431 163.7 97.8426C163.9 98.4417 163.9 99.1405 163.9 99.8394C163.9 100.039 163.8 100.339 163.7 100.438C163.5 100.538 163.3 100.638 163.1 100.638C160.5 100.738 159.2 99.8394 157.6 102.136C157.4 102.335 157.3 102.535 157.1 102.735C156.9 102.835 156.6 102.934 156.4 102.934C154.6 103.034 153.4 101.936 151.8 101.736C149.5 101.437 149 102.635 147 103.533C143.6 105.231 142.1 104.332 141.5 102.136Z" fill="#F5F5F5"/>
<path d="M161.7 97.7421C161.5 97.1431 161.5 96.5441 161.4 95.8452C161.2 91.9515 157.5 92.5505 154.3 92.0513C151.8 91.652 158.4 85.3621 153.4 83.3653C152.5 82.966 151.5 82.5666 151 81.6681C150.4 80.47 151 78.9724 152.1 78.1737C153.2 77.375 154.6 77.2752 155.9 77.2752C156.7 76.2768 156.1 74.7792 155.3 73.7808C154.5 72.7824 153.6 71.5843 153.8 70.3863C154.3 68.4893 156.9 68.4893 158.8 68.7888C159.5 67.6906 159.5 66.193 159.8 64.995C160.1 63.6971 161.2 62.3991 162.5 62.499C163.7 62.6987 164.5 64.0964 165.7 64.2961C167.1 64.5956 168.4 63.3975 169.5 62.3991C170.6 61.5006 172.6 60.9016 173.3 62.0996C173.8 62.7985 173.5 63.8967 174 64.5956C174.8 65.8935 176.8 65.0948 178 64.1962C179.2 63.2977 181.2 62.499 182 63.6971C182.3 64.0964 182.3 64.5956 182.5 64.995C183.1 66.6922 184.9 67.4909 186.3 68.5892C187.7 69.6874 188.8 71.784 187.6 73.0819C187 73.6809 186 73.9805 185.7 74.7792C185.3 75.7776 186.4 76.6761 187.2 77.375C188.6 78.5731 188.8 82.0674 187 82.966C186.2 83.3653 185.1 83.4652 184.9 84.3637C184.7 85.1624 185.5 85.6616 186 86.2607C187.4 87.8581 186.8 90.7534 184.9 91.652C184.5 91.8516 183.9 92.0513 183.8 92.4507C183.7 92.7502 183.8 93.1495 183.9 93.4491C184.1 94.0481 184.1 94.747 184.1 95.4458C184.1 95.6455 184 95.945 183.9 96.0449C183.7 96.1447 183.5 96.2446 183.3 96.2446C180.7 96.3444 179.4 95.4458 177.8 97.7421C177.6 97.9418 177.5 98.1415 177.3 98.3412C177.1 98.441 176.8 98.5408 176.6 98.5408C174.8 98.6407 173.6 97.5425 172 97.3428C169.7 97.0433 169.2 98.2413 167.2 99.1399C163.8 100.837 162.3 99.8388 161.7 97.7421Z" fill="#F5F5F5"/>
<path d="M161.9 119.208C161.8 118.809 161.7 118.31 161.7 117.711C161.5 114.616 158.6 115.115 156.1 114.715C154.2 114.416 159.3 109.524 155.4 107.926C154.7 107.627 153.9 107.327 153.5 106.628C153 105.73 153.5 104.532 154.4 103.933C155.2 103.334 156.3 103.234 157.4 103.234C158 102.435 157.5 101.337 156.9 100.538C156.3 99.7396 155.5 98.8411 155.8 97.8427C156.2 96.3451 158.2 96.3451 159.7 96.6446C160.3 95.746 160.2 94.6478 160.5 93.6494C160.8 92.651 161.6 91.5528 162.6 91.6526C163.6 91.7525 164.2 92.8507 165.1 93.1502C166.2 93.4497 167.2 92.4514 168.1 91.6526C169 90.9538 170.5 90.4546 171.1 91.453C171.5 92.052 171.2 92.8507 171.6 93.4497C172.3 94.4481 173.8 93.8491 174.8 93.1502C175.8 92.4514 177.3 91.8523 178 92.7509C178.2 93.0504 178.3 93.4497 178.4 93.7493C178.9 95.0472 180.3 95.746 181.4 96.5448C182.5 97.3435 183.4 99.0407 182.4 100.039C181.9 100.538 181.1 100.738 180.9 101.437C180.6 102.236 181.4 102.934 182.1 103.533C183.2 104.432 183.4 107.228 181.9 107.926C181.3 108.226 180.4 108.326 180.3 109.025C180.2 109.624 180.8 110.123 181.2 110.522C182.3 111.82 181.8 114.017 180.3 114.715C180 114.915 179.5 115.015 179.4 115.414C179.3 115.714 179.4 115.914 179.5 116.213C179.6 116.712 179.7 117.211 179.6 117.711C179.6 117.91 179.5 118.11 179.4 118.21C179.3 118.31 179.1 118.31 178.9 118.31C176.8 118.409 175.8 117.711 174.6 119.508C174.5 119.707 174.4 119.907 174.2 120.007C174 120.107 173.8 120.107 173.6 120.107C172.2 120.207 171.2 119.308 169.9 119.208C168.1 119.009 167.7 119.907 166.1 120.606C163.6 121.704 162.4 120.905 161.9 119.208Z" fill="#F5F5F5"/>
<path d="M173.2 111.82C173 111.221 173 110.622 172.9 109.923C172.7 106.03 169 106.629 165.8 106.129C163.3 105.73 169.9 99.4402 164.9 97.4434C164 97.0441 163 96.6447 162.5 95.7462C161.9 94.5481 162.5 93.0505 163.6 92.2518C164.7 91.4531 166.1 91.3533 167.4 91.3533C168.2 90.3549 167.6 88.8573 166.8 87.8589C166 86.8605 165.1 85.6625 165.3 84.4644C165.8 82.5674 168.4 82.5674 170.3 82.867C171 81.7687 171 80.2711 171.3 79.0731C171.6 77.7752 172.7 76.4773 174 76.5771C175.2 76.7768 176 78.1745 177.2 78.3742C178.6 78.6737 179.9 77.4757 181 76.4773C182.1 75.5787 184.1 74.9797 184.8 76.1778C185.3 76.8766 185 77.9749 185.5 78.6737C186.3 79.9716 188.3 79.1729 189.5 78.2744C190.7 77.3758 192.7 76.5771 193.5 77.7752C193.8 78.1745 193.8 78.6737 194 79.0731C194.6 80.7703 196.4 81.5691 197.8 82.6673C199.2 83.7655 200.3 85.8621 199.1 87.16C198.5 87.7591 197.5 88.0586 197.2 88.8573C196.8 89.8557 197.9 90.7542 198.7 91.4531C200.1 92.6512 200.3 96.1455 198.5 97.0441C197.7 97.4434 196.6 97.5433 196.4 98.4418C196.2 99.2406 197 99.7397 197.5 100.339C198.9 101.936 198.3 104.832 196.4 105.73C196 105.93 195.4 106.129 195.3 106.529C195.2 106.828 195.3 107.228 195.4 107.527C195.6 108.126 195.6 108.825 195.6 109.524C195.6 109.724 195.5 110.023 195.4 110.123C195.2 110.223 195 110.323 194.8 110.323C192.2 110.423 190.9 109.524 189.3 111.82C189.1 112.02 189 112.22 188.8 112.419C188.6 112.519 188.3 112.619 188.1 112.619C186.3 112.719 185.1 111.621 183.5 111.421C181.2 111.121 180.7 112.319 178.7 113.218C175.4 114.915 173.8 114.017 173.2 111.82Z" fill="#F5F5F5"/>
<path d="M141.5 78.4736C141.3 77.8745 141.3 77.2755 141.2 76.5766C141 72.6829 137.3 73.282 134.1 72.7828C131.6 72.3834 138.2 66.0935 133.2 64.0968C132.3 63.6974 131.3 63.2981 130.8 62.3995C130.2 61.2014 130.8 59.7039 131.9 58.9051C133 58.1064 134.4 58.0066 135.7 58.0066C136.5 57.0082 135.9 55.5106 135.1 54.5122C134.3 53.5138 133.4 52.3158 133.6 51.1177C134 49.2208 136.7 49.2208 138.6 49.5203C139.3 48.4221 139.3 46.9245 139.6 45.7264C139.9 44.4285 141 43.1306 142.3 43.2304C143.5 43.4301 144.3 44.8279 145.5 45.0275C146.9 45.327 148.2 44.129 149.3 43.1306C150.4 42.232 152.4 41.633 153.1 42.8311C153.6 43.5299 153.3 44.6282 153.8 45.327C154.6 46.625 156.6 45.8262 157.8 44.9277C159 44.0291 161 43.2304 161.8 44.4285C162.1 44.8279 162.1 45.327 162.3 45.7264C162.9 47.4237 164.7 48.2224 166.1 49.3206C167.5 50.4188 168.6 52.5155 167.4 53.8134C166.8 54.4124 165.8 54.7119 165.5 55.5106C165.1 56.509 166.2 57.4076 167 58.1064C168.4 59.3045 168.6 62.7989 166.8 63.6974C166 64.0968 164.9 64.1966 164.7 65.0952C164.5 65.8939 165.3 66.3931 165.8 66.9921C167.2 68.5895 166.6 71.4849 164.7 72.3834C164.3 72.5831 163.7 72.7828 163.6 73.1821C163.5 73.4816 163.6 73.881 163.7 74.1805C163.9 74.7795 163.9 75.4784 163.9 76.1773C163.9 76.377 163.8 76.6765 163.7 76.7763C163.5 76.8762 163.3 76.976 163.1 76.976C160.5 77.0758 159.2 76.1773 157.6 78.4736C157.4 78.6733 157.3 78.8729 157.1 79.0726C156.9 79.1725 156.6 79.2723 156.4 79.2723C154.6 79.3721 153.4 78.2739 151.8 78.0742C149.5 77.7747 149 78.9728 147 79.8713C143.6 81.5686 142.1 80.67 141.5 78.4736Z" fill="#F5F5F5"/>
<path d="M115.6 79.7714C115.4 79.1724 115.4 78.5734 115.3 77.8745C115.1 73.9808 111.4 74.5798 108.2 74.0806C105.7 73.6813 112.3 67.3914 107.3 65.3946C106.4 64.9953 105.4 64.5959 104.9 63.6974C104.3 62.4993 104.9 61.0017 106 60.203C107.1 59.4043 108.5 59.3044 109.8 59.3044C110.6 58.3061 110 56.8085 109.2 55.8101C108.4 54.8117 107.5 53.6136 107.7 52.4156C108.2 50.5186 110.8 50.5186 112.7 50.8181C113.4 49.7199 113.4 48.2223 113.7 47.0243C114 45.7263 115.1 44.4284 116.4 44.5283C117.6 44.728 118.4 46.1257 119.6 46.3254C121 46.6249 122.3 45.4268 123.4 44.4284C124.5 43.5299 126.5 42.9309 127.2 44.1289C127.7 44.8278 127.4 45.926 127.9 46.6249C128.7 47.9228 130.7 47.1241 131.9 46.2255C133.1 45.327 135.1 44.5283 135.9 45.7263C136.2 46.1257 136.2 46.6249 136.4 47.0243C137 48.7215 138.8 49.5202 140.2 50.6185C141.6 51.7167 142.7 53.8133 141.5 55.1112C140.9 55.7102 139.9 56.0098 139.6 56.8085C139.2 57.8069 140.3 58.7054 141.1 59.4043C142.5 60.6024 142.7 64.0967 140.9 64.9953C140.1 65.3946 139 65.4945 138.8 66.393C138.6 67.1917 139.4 67.6909 139.9 68.29C141.3 69.8874 140.7 72.7827 138.8 73.6813C138.4 73.8809 137.8 74.0806 137.7 74.48C137.6 74.7795 137.7 75.1788 137.8 75.4784C138 76.0774 138 76.7763 138 77.4751C138 77.6748 137.9 77.9743 137.8 78.0742C137.6 78.174 137.4 78.2739 137.2 78.2739C134.6 78.3737 133.3 77.4751 131.7 79.7714C131.5 79.9711 131.4 80.1708 131.2 80.3705C131 80.4703 130.7 80.5701 130.5 80.5701C128.7 80.67 127.5 79.5718 125.9 79.3721C123.6 79.0726 123.1 80.2706 121.1 81.1692C117.8 82.8664 116.2 81.9679 115.6 79.7714Z" fill="#F5F5F5"/>
<path d="M99.9 90.3544C99.7 89.7554 99.7 89.1564 99.6 88.4575C99.4 84.5638 95.7 85.1628 92.5 84.6636C90 84.2643 96.6 77.9744 91.6 75.9776C90.7 75.5783 89.7 75.1789 89.2 74.2804C88.6 73.0823 89.2 71.5847 90.3 70.786C91.4 69.9873 92.8 69.8875 94.1 69.8875C94.9 68.8891 94.3 67.3915 93.5 66.3931C92.7 65.3947 91.8 64.1966 92 62.9986C92.5 61.1016 95.1 61.1016 97 61.4011C97.7 60.3029 97.7 58.8053 98 57.6073C98.3 56.3094 99.4 55.0115 100.7 55.1113C101.9 55.311 102.7 56.7087 103.9 56.9084C105.3 57.2079 106.6 56.0098 107.7 55.0114C108.8 54.1129 110.8 53.5139 111.5 54.7119C112 55.4108 111.7 56.509 112.2 57.2079C113 58.5058 115 57.7071 116.2 56.8086C117.4 55.91 119.4 55.1113 120.2 56.3094C120.5 56.7087 120.5 57.2079 120.7 57.6073C121.3 59.3045 123.1 60.1032 124.5 61.2015C125.9 62.2997 127 64.3963 125.8 65.6942C125.2 66.2933 124.2 66.5928 123.9 67.3915C123.5 68.3899 124.6 69.2884 125.4 69.9873C126.8 71.1854 127 74.6797 125.2 75.5783C124.4 75.9776 123.3 76.0775 123.1 76.976C122.9 77.7747 123.7 78.2739 124.2 78.873C125.6 80.4704 125 83.3657 123.1 84.2643C122.7 84.4639 122.1 84.6636 122 85.063C121.9 85.3625 122 85.7619 122.1 86.0614C122.3 86.6604 122.3 87.3593 122.3 88.0581C122.3 88.2578 122.2 88.5573 122.1 88.6572C121.9 88.757 121.7 88.8569 121.5 88.8569C118.9 88.9567 117.6 88.0582 116 90.3544C115.8 90.5541 115.7 90.7538 115.5 90.9535C115.3 91.0533 115 91.1532 114.8 91.1532C113 91.253 111.8 90.1548 110.2 89.9551C107.9 89.6556 107.4 90.8536 105.4 91.7522C102 93.4495 100.5 92.5509 99.9 90.3544Z" fill="#F5F5F5"/>
<path d="M104.7 103.733C104.7 103.733 111.3 113.018 113.5 115.914C115.8 118.809 127.1 137.179 128.7 149.36C128.9 150.658 129 151.756 129.2 152.754C124.3 184.902 125.1 307.604 125.3 317.688H145.3C141.5 242.31 142.2 138.677 142.7 135.482C143.2 132.088 149.7 119.408 159.7 114.116C169.7 108.825 178.3 91.5529 178.3 91.5529H175C175 91.5529 169.1 102.236 160.7 108.126C159.5 109.025 158.2 109.724 156.9 110.323C157.2 100.738 153.6 91.5529 153.6 91.5529L151.9 93.1503C154.2 102.635 153.9 108.725 153.2 112.22C150.4 113.617 147.5 115.215 144.5 118.01C135.8 106.728 130.9 80.8701 130.9 80.8701L128.7 82.0682C128.7 82.0682 129.4 89.0569 131.6 97.9426C133.2 104.632 138 117.211 140.3 122.902C138.1 125.997 135.9 129.991 133.7 135.183C133.5 134.783 133.2 134.484 132.9 134.184C127.2 129.092 116.6 104.931 116.6 104.931C114 99.3403 118 84.5642 118 84.5642H115L113.7 97.4434L106.2 89.2566L104.8 90.3548L112.7 100.538L116.8 113.418L106 101.736L104.7 103.733Z" fill="#F5F5F5"/>
<path d="M405.5 122.202C405.6 121.703 405.7 121.104 405.8 120.405C406 116.711 409.5 117.31 412.5 116.811C414.8 116.412 408.7 110.521 413.4 108.624C414.3 108.225 415.2 107.826 415.7 107.027C416.3 105.929 415.7 104.531 414.7 103.732C413.7 103.033 412.4 102.834 411.1 102.834C410.3 101.935 411 100.537 411.7 99.5389C412.4 98.5405 413.3 97.5421 413.1 96.344C412.7 94.5469 410.2 94.5469 408.4 94.8465C407.7 93.7482 407.8 92.4503 407.4 91.2523C407.1 90.0542 406.1 88.7563 404.9 88.956C403.7 89.0558 403 90.4535 401.9 90.6532C400.6 90.9527 399.4 89.7547 398.4 88.8561C397.4 87.9576 395.5 87.4584 394.8 88.5566C394.4 89.2555 394.6 90.2539 394.2 90.9527C393.4 92.1508 391.6 91.4519 390.4 90.5534C389.3 89.7547 387.4 88.956 386.6 90.154C386.4 90.5534 386.3 90.9527 386.2 91.3521C385.7 92.9495 384 93.6484 382.6 94.7466C381.3 95.745 380.2 97.7418 381.4 98.9398C382 99.5389 382.9 99.8384 383.2 100.537C383.5 101.536 382.6 102.334 381.8 103.033C380.5 104.131 380.3 107.426 382 108.325C382.7 108.724 383.8 108.824 384 109.623C384.2 110.321 383.4 110.921 383 111.42C381.7 112.917 382.2 115.613 384 116.512C384.4 116.711 384.9 116.911 385.1 117.31C385.2 117.61 385.1 117.909 385 118.309C384.8 118.908 384.8 119.507 384.8 120.106C384.8 120.305 384.9 120.505 385 120.705C385.1 120.805 385.4 120.805 385.5 120.904C388 121.004 389.2 120.106 390.7 122.302C390.8 122.502 391 122.702 391.2 122.801C391.4 122.901 391.6 123.001 391.9 123.001C393.6 123.101 394.7 122.102 396.3 121.903C398.5 121.603 398.9 122.702 400.8 123.6C403.4 125.098 404.9 124.199 405.5 122.202Z" fill="#F5F5F5"/>
<path d="M376.9 119.108C377 118.608 377.1 118.009 377.2 117.31C377.4 113.616 380.9 114.215 383.9 113.716C386.2 113.317 380.1 107.426 384.8 105.529C385.7 105.13 386.6 104.731 387.1 103.932C387.7 102.834 387.1 101.436 386.1 100.637C385.1 99.9385 383.8 99.7388 382.5 99.7388C381.7 98.8403 382.4 97.4425 383.1 96.4442C383.8 95.4458 384.7 94.4474 384.5 93.2493C384.1 91.4522 381.6 91.4522 379.8 91.7517C379.1 90.6535 379.2 89.3556 378.8 88.1575C378.5 86.9595 377.5 85.6615 376.3 85.8612C375.1 85.9611 374.4 87.3588 373.3 87.5585C372 87.858 370.8 86.6599 369.8 85.7614C368.8 84.8628 366.9 84.3636 366.2 85.4619C365.8 86.1607 366 87.1591 365.6 87.858C364.8 89.0561 363 88.3572 361.8 87.4586C360.7 86.6599 358.8 85.8612 358 87.0593C357.8 87.4586 357.7 87.858 357.6 88.2574C357.1 89.8548 355.4 90.5537 354 91.6519C352.7 92.6503 351.6 94.6471 352.8 95.8451C353.4 96.4442 354.3 96.7437 354.6 97.4425C354.9 98.4409 354 99.2396 353.2 99.9385C351.9 101.037 351.7 104.331 353.4 105.23C354.1 105.629 355.2 105.729 355.4 106.528C355.6 107.227 354.8 107.826 354.4 108.325C353.1 109.823 353.6 112.518 355.4 113.417C355.8 113.616 356.3 113.816 356.5 114.215C356.6 114.515 356.5 114.815 356.4 115.214C356.2 115.813 356.2 116.412 356.2 117.011C356.2 117.211 356.3 117.41 356.4 117.61C356.5 117.71 356.8 117.71 356.9 117.81C359.4 117.91 360.6 117.011 362.1 119.207C362.2 119.407 362.4 119.607 362.6 119.707C362.8 119.806 363 119.906 363.3 119.906C365 120.006 366.1 119.008 367.7 118.808C369.9 118.509 370.3 119.607 372.2 120.505C374.9 122.003 376.4 121.104 376.9 119.108Z" fill="#F5F5F5"/>
<path d="M374.2 100.937C374.3 100.438 374.4 99.8385 374.5 99.1396C374.7 95.4456 378.2 96.0446 381.2 95.5454C383.5 95.146 377.4 89.2555 382.1 87.3586C383 86.9592 383.9 86.5599 384.4 85.7612C385 84.663 384.4 83.2652 383.4 82.4665C382.4 81.7676 381.1 81.5679 379.8 81.5679C379 80.6694 379.7 79.2716 380.4 78.2733C381.1 77.2749 382 76.2765 381.8 75.0784C381.4 73.2813 378.9 73.2813 377.1 73.5808C376.4 72.4826 376.5 71.1847 376.1 69.9866C375.8 68.7886 374.8 67.4907 373.6 67.6903C372.4 67.7902 371.7 69.1879 370.6 69.3876C369.3 69.6871 368.1 68.489 367.1 67.5905C366.1 66.6919 364.2 66.1927 363.5 67.291C363.1 67.9898 363.3 68.9882 362.9 69.6871C362.1 70.8852 360.3 70.1863 359.1 69.2878C358 68.489 356.1 67.6903 355.3 68.8884C355.1 69.2877 355 69.6871 354.9 70.0865C354.4 71.6839 352.7 72.3828 351.3 73.481C350 74.4794 348.9 76.4762 350.1 77.6742C350.7 78.2733 351.6 78.5728 351.9 79.2716C352.2 80.27 351.3 81.0687 350.5 81.7676C349.2 82.8659 349 86.1605 350.7 87.0591C351.4 87.4584 352.5 87.5583 352.7 88.357C352.9 89.0559 352.1 89.6549 351.7 90.1541C350.4 91.6517 350.9 94.3473 352.7 95.2459C353.1 95.4456 353.6 95.6452 353.8 96.0446C353.9 96.3441 353.8 96.6436 353.7 97.043C353.5 97.642 353.5 98.2411 353.5 98.8401C353.5 99.0398 353.6 99.2394 353.7 99.4391C353.8 99.539 354.1 99.539 354.2 99.6388C356.7 99.7386 357.9 98.8401 359.4 101.037C359.5 101.236 359.7 101.436 359.9 101.536C360.1 101.636 360.3 101.735 360.6 101.735C362.3 101.835 363.4 100.837 365 100.637C367.2 100.338 367.6 101.436 369.5 102.334C372.2 103.832 373.6 103.033 374.2 100.937Z" fill="#F5F5F5"/>
<path d="M355.4 110.023C355.5 109.523 355.6 108.924 355.7 108.226C355.9 104.531 359.4 105.131 362.4 104.631C364.7 104.232 358.6 98.3415 363.3 96.4445C364.2 96.0452 365.1 95.6458 365.6 94.8471C366.2 93.7489 365.6 92.3511 364.6 91.5524C363.6 90.8536 362.3 90.6539 361 90.6539C360.2 89.7553 360.9 88.3576 361.6 87.3592C362.3 86.3608 363.2 85.3624 363 84.1643C362.6 82.3672 360.1 82.3672 358.3 82.6668C357.6 81.5685 357.7 80.2706 357.3 79.0726C357 77.8745 356 76.5766 354.8 76.7763C353.6 76.8761 352.9 78.2738 351.8 78.4735C350.5 78.773 349.3 77.575 348.3 76.6764C347.3 75.7779 345.4 75.2787 344.7 76.3769C344.3 77.0758 344.5 78.0742 344.1 78.773C343.3 79.9711 341.5 79.2722 340.3 78.3737C339.2 77.575 337.3 76.7763 336.5 77.9743C336.3 78.3737 336.2 78.773 336.1 79.1724C335.6 80.7698 333.9 81.4687 332.5 82.5669C331.2 83.5653 330.1 85.5621 331.3 86.7602C331.9 87.3592 332.8 87.6587 333.1 88.3576C333.4 89.356 332.5 90.1547 331.7 90.8536C330.4 91.9518 330.2 95.2465 331.9 96.145C332.6 96.5444 333.7 96.6442 333.9 97.4429C334.1 98.1418 333.3 98.7408 332.9 99.24C331.6 100.738 332.1 103.433 333.9 104.332C334.3 104.531 334.8 104.731 335 105.131C335.1 105.43 335 105.73 334.9 106.129C334.7 106.728 334.7 107.327 334.7 107.926C334.7 108.126 334.8 108.325 334.9 108.525C335 108.625 335.3 108.625 335.4 108.725C337.9 108.825 339.1 107.926 340.6 110.122C340.7 110.322 340.9 110.522 341.1 110.622C341.3 110.722 341.5 110.821 341.8 110.821C343.5 110.921 344.6 109.923 346.2 109.723C348.4 109.424 348.8 110.522 350.7 111.42C353.4 112.918 354.9 112.019 355.4 110.023Z" fill="#F5F5F5"/>
<path d="M336.4 105.829C336.5 105.33 336.6 104.731 336.7 104.032C336.9 100.338 340.4 100.937 343.4 100.438C345.7 100.039 339.6 94.1481 344.3 92.2512C345.2 91.8518 346.1 91.4525 346.6 90.6538C347.2 89.5555 346.6 88.1578 345.6 87.3591C344.6 86.6602 343.3 86.4605 342 86.4605C341.2 85.562 341.9 84.1642 342.6 83.1658C343.3 82.1674 344.2 81.1691 344 79.971C343.6 78.1739 341.1 78.1739 339.3 78.4734C338.6 77.3752 338.7 76.0773 338.3 74.8792C338 73.6811 337 72.3832 335.8 72.5829C334.6 72.6827 333.9 74.0805 332.8 74.2802C331.5 74.5797 330.3 73.3816 329.3 72.4831C328.3 71.5845 326.4 71.0853 325.7 72.1835C325.3 72.8824 325.5 73.8808 325.1 74.5797C324.3 75.7777 322.5 75.0789 321.3 74.1803C320.2 73.3816 318.3 72.5829 317.5 73.781C317.3 74.1803 317.2 74.5797 317.1 74.979C316.6 76.5765 314.9 77.2753 313.5 78.3736C312.2 79.372 311.1 81.3687 312.3 82.5668C312.9 83.1658 313.8 83.4654 314.1 84.1642C314.4 85.1626 313.5 85.9613 312.7 86.6602C311.4 87.7584 311.2 91.0531 312.9 91.9517C313.6 92.351 314.7 92.4509 314.9 93.2496C315.1 93.9484 314.3 94.5475 313.9 95.0467C312.6 96.5443 313.1 99.2399 314.9 100.138C315.3 100.338 315.8 100.538 316 100.937C316.1 101.237 316 101.536 315.9 101.936C315.7 102.535 315.7 103.134 315.7 103.733C315.7 103.932 315.8 104.132 315.9 104.332C316 104.432 316.3 104.432 316.4 104.531C318.9 104.631 320.1 103.733 321.6 105.929C321.7 106.129 321.9 106.328 322.1 106.428C322.3 106.528 322.5 106.628 322.8 106.628C324.5 106.728 325.6 105.729 327.2 105.53C329.4 105.23 329.8 106.328 331.7 107.227C334.4 108.725 335.9 107.826 336.4 105.829Z" fill="#F5F5F5"/>
<path d="M336.2 126.096C336.3 125.697 336.4 125.198 336.4 124.699C336.6 121.803 339.3 122.303 341.7 121.903C343.5 121.604 338.7 117.011 342.4 115.514C343.1 115.214 343.8 114.915 344.2 114.315C344.7 113.417 344.2 112.319 343.4 111.72C342.6 111.121 341.6 111.021 340.6 111.021C340 110.322 340.5 109.224 341.1 108.425C341.7 107.726 342.4 106.828 342.2 105.929C341.9 104.531 339.9 104.531 338.5 104.731C338 103.932 338 102.834 337.7 101.836C337.4 100.837 336.7 99.8388 335.7 100.039C334.8 100.138 334.2 101.237 333.3 101.436C332.2 101.636 331.3 100.737 330.5 100.039C329.7 99.3396 328.2 98.9403 327.7 99.8388C327.4 100.438 327.6 101.137 327.2 101.736C326.6 102.634 325.1 102.135 324.2 101.436C323.3 100.737 321.9 100.138 321.2 101.137C321 101.436 321 101.736 320.8 102.135C320.4 103.333 319 103.932 318 104.731C317 105.53 316.1 107.127 317 108.026C317.4 108.525 318.2 108.725 318.4 109.324C318.7 110.122 317.9 110.721 317.3 111.32C316.3 112.219 316.1 114.815 317.4 115.514C318 115.813 318.8 115.913 318.9 116.512C319 117.111 318.5 117.51 318.1 117.91C317.1 119.108 317.5 121.204 318.9 121.903C319.2 122.103 319.6 122.203 319.7 122.502C319.8 122.702 319.7 123.001 319.6 123.301C319.5 123.8 319.4 124.299 319.5 124.699C319.5 124.898 319.5 124.998 319.7 125.198C319.8 125.298 320 125.298 320.1 125.298C322 125.398 323 124.699 324.2 126.396C324.3 126.596 324.4 126.696 324.6 126.795C324.8 126.895 325 126.895 325.1 126.895C326.4 126.995 327.3 126.196 328.5 125.997C330.2 125.797 330.6 126.696 332.1 127.394C334.6 128.393 335.7 127.694 336.2 126.096Z" fill="#F5F5F5"/>
<path d="M325.5 119.108C325.6 118.608 325.7 118.009 325.8 117.31C326 113.616 329.5 114.215 332.5 113.716C334.8 113.317 328.7 107.426 333.4 105.529C334.3 105.13 335.2 104.731 335.7 103.932C336.3 102.834 335.7 101.436 334.7 100.637C333.7 99.9385 332.4 99.7388 331.1 99.7388C330.3 98.8403 331 97.4425 331.7 96.4442C332.4 95.4458 333.3 94.4474 333.1 93.2493C332.7 91.4522 330.2 91.4522 328.4 91.7517C327.7 90.6535 327.8 89.3556 327.4 88.1575C327.1 86.9595 326.1 85.6615 324.9 85.8612C323.7 85.9611 323 87.3588 321.9 87.5585C320.6 87.858 319.4 86.6599 318.4 85.7614C317.4 84.8628 315.5 84.3636 314.8 85.4619C314.4 86.1607 314.6 87.1591 314.2 87.858C313.4 89.0561 311.6 88.3572 310.4 87.4586C309.3 86.6599 307.4 85.8612 306.6 87.0593C306.4 87.4586 306.3 87.858 306.2 88.2574C305.7 89.8548 304 90.5537 302.6 91.6519C301.3 92.6503 300.2 94.6471 301.4 95.8451C302 96.4442 302.9 96.7437 303.2 97.4425C303.5 98.4409 302.6 99.2396 301.8 99.9385C300.5 101.037 300.3 104.331 302 105.23C302.7 105.629 303.8 105.729 304 106.528C304.2 107.227 303.4 107.826 303 108.325C301.7 109.823 302.2 112.518 304 113.417C304.4 113.616 304.9 113.816 305.1 114.215C305.2 114.515 305.1 114.815 305 115.214C304.8 115.813 304.8 116.412 304.8 117.011C304.8 117.211 304.9 117.41 305 117.61C305.1 117.71 305.4 117.71 305.5 117.81C308 117.91 309.2 117.011 310.7 119.207C310.8 119.407 311 119.607 311.2 119.707C311.4 119.806 311.6 119.906 311.9 119.906C313.6 120.006 314.7 119.008 316.3 118.808C318.5 118.509 318.9 119.607 320.8 120.505C323.5 122.003 325 121.104 325.5 119.108Z" fill="#F5F5F5"/>
<path d="M355.4 87.6584C355.5 87.1592 355.6 86.5602 355.7 85.8613C355.9 82.1672 359.4 82.7663 362.4 82.2671C364.7 81.8677 358.6 75.9772 363.3 74.0803C364.2 73.6809 365.1 73.2816 365.6 72.4829C366.2 71.3846 365.6 69.9869 364.6 69.1882C363.6 68.4893 362.3 68.2896 361 68.2896C360.2 67.3911 360.9 65.9933 361.6 64.9949C362.3 63.9965 363.2 62.9982 363 61.8001C362.6 60.003 360.1 60.003 358.3 60.3025C357.6 59.2043 357.7 57.9064 357.3 56.7083C356.9 55.5102 356 54.2123 354.8 54.412C353.6 54.5118 352.9 55.9096 351.8 56.1093C350.5 56.4088 349.3 55.2107 348.3 54.3122C347.3 53.4136 345.4 52.9144 344.7 54.0126C344.3 54.7115 344.5 55.7099 344.1 56.4088C343.3 57.6069 341.5 56.908 340.3 56.0094C339.2 55.2107 337.3 54.412 336.5 55.6101C336.3 56.0094 336.2 56.4088 336.1 56.8081C335.6 58.4056 333.9 59.1044 332.5 60.2027C331.2 61.2011 330.1 63.1978 331.3 64.3959C331.9 64.9949 332.8 65.2945 333.1 65.9933C333.4 66.9917 332.5 67.7904 331.7 68.4893C330.4 69.5875 330.2 72.8822 331.9 73.7808C332.6 74.1801 333.7 74.28 333.9 75.0787C334.1 75.7775 333.3 76.3766 332.9 76.8758C331.6 78.3734 332.1 81.069 333.9 81.9676C334.3 82.1672 334.8 82.3669 335 82.7663C335.1 83.0658 335 83.3653 334.9 83.7647C334.7 84.3637 334.7 84.9627 334.7 85.5618C334.7 85.7614 334.8 85.9611 334.9 86.1608C335 86.2606 335.3 86.2606 335.4 86.3605C337.9 86.4603 339.1 85.5618 340.6 87.7582C340.7 87.9579 340.9 88.1576 341.1 88.2574C341.3 88.3573 341.5 88.4571 341.8 88.4571C343.5 88.5569 344.6 87.5585 346.2 87.3589C348.4 87.0593 348.8 88.1576 350.7 89.0561C353.4 90.5537 354.9 89.755 355.4 87.6584Z" fill="#F5F5F5"/>
<path d="M379.8 88.9562C379.9 88.457 380 87.858 380.1 87.1591C380.3 83.4651 383.8 84.0641 386.8 83.5649C389.1 83.1656 383 77.2751 387.7 75.3781C388.6 74.9788 389.5 74.5794 390 73.7807C390.6 72.6825 390 71.2847 389 70.486C388 69.7871 386.7 69.5875 385.4 69.5875C384.6 68.6889 385.3 67.2912 386 66.2928C386.7 65.2944 387.6 64.296 387.4 63.0979C387 61.3008 384.5 61.3008 382.7 61.6004C382 60.5021 382.1 59.2042 381.7 58.0062C381.4 56.8081 380.4 55.5102 379.2 55.7099C378 55.8097 377.3 57.2074 376.2 57.4071C374.9 57.7066 373.7 56.5086 372.7 55.61C371.7 54.7115 369.8 54.2123 369.1 55.3105C368.7 56.0094 368.9 57.0078 368.5 57.7066C367.7 58.9047 365.9 58.2058 364.7 57.3073C363.6 56.5086 361.7 55.7099 360.9 56.9079C360.7 57.3073 360.6 57.7066 360.5 58.106C360 59.7034 358.3 60.4023 356.9 61.5005C355.6 62.4989 354.5 64.4957 355.7 65.6938C356.3 66.2928 357.2 66.5923 357.5 67.2912C357.8 68.2896 356.9 69.0883 356.1 69.7872C354.8 70.8854 354.6 74.1801 356.3 75.0786C357 75.478 358.1 75.5778 358.3 76.3765C358.5 77.0754 357.7 77.6744 357.3 78.1736C356 79.6712 356.5 82.3669 358.3 83.2654C358.7 83.4651 359.2 83.6648 359.4 84.0641C359.5 84.3636 359.4 84.6632 359.3 85.0625C359.1 85.6615 359.1 86.2606 359.1 86.8596C359.1 87.0593 359.2 87.259 359.3 87.4586C359.4 87.5585 359.7 87.5585 359.8 87.6583C362.3 87.7582 363.5 86.8596 365 89.0561C365.1 89.2557 365.3 89.4554 365.5 89.5553C365.7 89.6551 365.9 89.7549 366.2 89.7549C367.9 89.8548 369 88.8564 370.6 88.6567C372.8 88.3572 373.2 89.4554 375.1 90.354C377.8 91.8516 379.2 90.953 379.8 88.9562Z" fill="#F5F5F5"/>
<path d="M394.6 98.9406C394.7 98.4414 394.8 97.8424 394.9 97.1435C395.1 93.4495 398.6 94.0485 401.6 93.5493C403.9 93.1499 397.8 87.2594 402.5 85.3625C403.4 84.9632 404.3 84.5638 404.8 83.7651C405.4 82.6669 404.8 81.2691 403.8 80.4704C402.8 79.7715 401.5 79.5718 400.2 79.5718C399.4 78.6733 400.1 77.2756 400.8 76.2772C401.5 75.2788 402.4 74.2804 402.2 73.0823C401.8 71.2852 399.3 71.2852 397.5 71.5847C396.8 70.4865 396.9 69.1886 396.5 67.9905C396.2 66.7925 395.2 65.4946 394 65.6942C392.8 65.7941 392.1 67.1918 391 67.3915C389.7 67.691 388.5 66.4929 387.5 65.5944C386.5 64.6958 384.6 64.1966 383.9 65.2949C383.5 65.9938 383.7 66.9921 383.3 67.691C382.5 68.8891 380.7 68.1902 379.5 67.2917C378.4 66.4929 376.5 65.6942 375.7 66.8923C375.5 67.2917 375.4 67.691 375.3 68.0904C374.8 69.6878 373.1 70.3867 371.7 71.4849C370.4 72.4833 369.3 74.4801 370.5 75.6781C371.1 76.2772 372 76.5767 372.3 77.2756C372.6 78.2739 371.7 79.0727 370.9 79.7715C369.6 80.8698 369.4 84.1644 371.1 85.063C371.8 85.4623 372.9 85.5622 373.1 86.3609C373.3 87.0598 372.5 87.6588 372.1 88.158C370.8 89.6556 371.3 92.3512 373.1 93.2498C373.5 93.4495 374 93.6491 374.2 94.0485C374.3 94.348 374.2 94.6475 374.1 95.0469C373.9 95.6459 373.9 96.245 373.9 96.844C373.9 97.0437 374 97.2433 374.1 97.443C374.2 97.5429 374.5 97.5429 374.6 97.6427C377.1 97.7425 378.3 96.844 379.8 99.0404C379.9 99.2401 380.1 99.4398 380.3 99.5396C380.5 99.6395 380.7 99.7393 381 99.7393C382.7 99.8392 383.8 98.8408 385.4 98.6411C387.6 98.3416 388 99.4398 389.9 100.338C392.6 101.836 394.1 100.937 394.6 98.9406Z" fill="#F5F5F5"/>
<path d="M390.1 111.52C390.1 111.52 383.9 120.306 381.8 123.002C379.7 125.797 369 143.069 367.5 154.451C367.3 155.649 367.2 156.747 367 157.646C371.6 187.897 370.9 310.2 370.7 319.685H350.1C352.3 226.036 354.7 144.367 354.3 141.372C353.8 138.177 347.7 126.197 338.3 121.205C328.9 116.313 320.8 99.939 320.8 99.939H323.8C323.8 99.939 329.4 109.923 337.3 115.514C338.4 116.313 339.6 117.011 340.9 117.61C340.6 108.625 344 99.939 344 99.939L345.6 101.437C343.4 110.322 343.7 116.113 344.4 119.408C347.1 120.705 349.8 122.303 352.6 124.899C360.8 114.216 365.4 89.9551 365.4 89.9551L367.5 91.0533C367.5 91.0533 366.8 97.6427 364.8 106.029C363.3 112.319 358.7 124.2 356.6 129.591C358.7 132.486 360.8 136.28 362.8 141.172C363 140.773 363.3 140.474 363.6 140.274C368.9 135.482 379 112.718 379 112.718C381.4 107.427 377.7 93.5493 377.7 93.5493H380.5L381.8 105.73L388.8 98.042L390.1 99.1403L382.6 108.725L378.8 120.905L388.8 109.823L390.1 111.52Z" fill="#F5F5F5"/>
<path d="M429.2 236.918H70.8V249.098H429.2V236.918Z" fill="#E0E0E0"/>
<path d="M79.2 312.197H62.4V205.868L70.8 199.878L79.2 205.868V312.197Z" fill="#E6E6E6"/>
<path d="M109.1 312.197H92.2V205.868L100.7 199.878L109.1 205.868V312.197Z" fill="#E6E6E6"/>
<path d="M139 312.197H122.1V205.868L130.5 199.878L139 205.868V312.197Z" fill="#E6E6E6"/>
<path d="M168.8 312.197H152V205.868L160.4 199.878L168.8 205.868V312.197Z" fill="#E6E6E6"/>
<path d="M198.7 312.197H181.8V205.868L190.3 199.878L198.7 205.868V312.197Z" fill="#E6E6E6"/>
<path d="M228.6 312.197H211.7V205.868L220.1 199.878L228.6 205.868V312.197Z" fill="#E6E6E6"/>
<path d="M258.4 312.197H241.6V205.868L250 199.878L258.4 205.868V312.197Z" fill="#E6E6E6"/>
<path d="M288.3 312.197H271.4V205.868L279.9 199.878L288.3 205.868V312.197Z" fill="#E6E6E6"/>
<path d="M318.2 312.197H301.3V205.868L309.7 199.878L318.2 205.868V312.197Z" fill="#E6E6E6"/>
<path d="M348 312.197H331.2V205.868L339.6 199.878L348 205.868V312.197Z" fill="#E6E6E6"/>
<path d="M377.9 312.197H361V205.868L369.5 199.878L377.9 205.868V312.197Z" fill="#E6E6E6"/>
<path d="M407.8 312.197H390.9V205.868L399.3 199.878L407.8 205.868V312.197Z" fill="#E6E6E6"/>
<path d="M437.6 312.197H420.8V205.868L429.2 199.878L437.6 205.868V312.197Z" fill="#E6E6E6"/>
<path d="M424.8 313.395C424.8 313.395 427.6 304.01 421.9 302.213C416.2 300.316 412.9 296.023 413.1 291.031C413.3 286.039 407.3 281.246 402.9 285.939C398.4 290.532 399 282.345 393.1 280.348C387.2 278.351 382.1 283.143 383.7 287.636C385.3 292.029 379.5 294.825 372.4 291.031C365.4 287.237 357.6 294.126 359.1 299.417C360.6 304.808 359.4 305.308 354.9 303.61C350.5 301.813 342.5 306.905 345.3 313.395C348.2 319.884 424.8 313.395 424.8 313.395Z" fill="#E0E0E0"/>
<path d="M124.5 311.996C124.5 311.996 126.7 304.708 122.3 303.31C117.9 301.913 115.3 298.518 115.5 294.624C115.6 290.831 111 287.037 107.6 290.631C104.1 294.225 104.6 287.835 100 286.338C95.4 284.84 91.5 288.534 92.7 291.929C94 295.323 89.4 297.52 83.9 294.624C78.4 291.729 72.4 297.021 73.6 301.114C74.8 305.307 73.8 305.707 70.4 304.309C66.9 302.911 60.8 306.805 62.9 311.897C65 317.088 124.5 311.996 124.5 311.996Z" fill="#E0E0E0"/>
<path d="M233 312.895C238 307.903 233.5 299.417 228.5 298.418C223.5 297.42 218.5 288.634 218.2 283.043C218 277.452 209 260.28 195 270.863C181 281.446 185.3 272.46 175.1 269.465C164.9 266.47 158.6 275.056 163 281.546C163 281.546 152.8 279.05 148.6 288.534C144.4 298.019 148.6 303.91 148.6 303.91C148.6 303.91 129.5 303.311 131.2 315.191C133 326.873 233 312.895 233 312.895Z" fill="#E0E0E0"/>
<path d="M55.2 313.194V326.872H441.2V313.194C441.2 310.798 439.5 308.901 437.2 308.901H59.2C56.9 308.901 55.2 310.798 55.2 313.194Z" fill="#EBEBEB"/>
<path d="M419.2 308.901H395.2V326.872H419.2V308.901Z" fill="#F5F5F5"/>
<path d="M373.2 308.901H350.2V326.872H373.2V308.901Z" fill="#F5F5F5"/>
<path d="M328.2 308.901H304.2V326.872H328.2V308.901Z" fill="#F5F5F5"/>
<path d="M282.2 308.901H259.2V326.872H282.2V308.901Z" fill="#F5F5F5"/>
<path d="M237.2 308.901H214.2V326.872H237.2V308.901Z" fill="#F5F5F5"/>
<path d="M192.2 308.901H168.2V326.872H192.2V308.901Z" fill="#F5F5F5"/>
<path d="M146.2 308.901H123.2V326.872H146.2V308.901Z" fill="#F5F5F5"/>
<path d="M101.2 308.901H77.2V326.872H101.2V308.901Z" fill="#F5F5F5"/>
<path d="M137 193.487C137.8 193.587 138.7 193.587 139.5 193.687" stroke="#E0E0E0" stroke-linecap="round" stroke-linejoin="round"/>
<path d="M144.5 193.887C183.8 196.283 223.2 196.383 262.5 193.088C283.3 191.391 304.1 188.695 324.7 184.901C343.4 181.507 363.1 178.112 380.2 169.426C384.1 167.429 387.9 165.133 391.5 162.537C396.6 158.843 401.4 154.251 403.9 148.46C418.6 114.315 340.6 127.094 326.4 127.693C285.7 129.69 244.9 132.486 204.2 134.183C180.1 135.181 144.7 126.895 133.1 103.333C131.5 100.038 130.4 96.2441 131 92.6499C131.6 89.2554 133.6 86.2602 135.9 83.7643C148.4 70.3858 170.4 66.4921 187.7 62.3987C206 58.0058 224.6 55.3101 243.3 54.2119" stroke="#E0E0E0" stroke-linecap="round" stroke-linejoin="round" stroke-dasharray="4.98 4.98"/>
<path d="M245.7 54.1127C246.5 54.1127 247.4 54.0127 248.2 54.0127" stroke="#E0E0E0" stroke-linecap="round" stroke-linejoin="round"/>
<path d="M244 47.2236L249.6 51.6165L252 62.3992L260.2 57.3074L268.3 60.8017L292.3 48.8211L244 47.2236Z" fill="#EBEBEB"/>
<path d="M252 62.3993L254.6 54.8115L260.2 57.3075L252 62.3993Z" fill="#E0E0E0"/>
<path d="M249.6 51.6165L292.3 48.8211L254.6 54.8114L268.3 60.8017L292.3 48.8211L244 47.2236L249.6 51.6165Z" fill="#F5F5F5"/>
<path d="M250 372C357.088 372 443.9 366.949 443.9 360.718C443.9 354.488 357.088 349.437 250 349.437C142.912 349.437 56.1 354.488 56.1 360.718C56.1 366.949 142.912 372 250 372Z" fill="#F5F5F5"/>
<path d="M399 362.815H222.4C220.2 362.815 218.4 361.018 218.4 358.822V237.917L303 174.02C306.1 171.624 310.4 171.624 313.5 173.92L402.9 238.017V358.922C403 361.018 401.2 362.815 399 362.815Z" fill="#B0DAF0"/>
<path opacity="0.2" d="M399 362.815H222.4C220.2 362.815 218.4 361.018 218.4 358.822V237.917L303 174.02C306.1 171.624 310.4 171.624 313.5 173.92L402.9 238.017V358.922C403 361.018 401.2 362.815 399 362.815Z" fill="black"/>
<path d="M367.7 305.907H242.7C245.8 303.91 247.7 300.416 247.7 296.722V109.324C247.7 105.331 250 101.636 253.7 100.039H378.7C375 101.736 372.7 105.331 372.7 109.324V296.722C372.7 300.416 370.9 303.91 367.7 305.907Z" fill="#B0DAF0"/>
<path opacity="0.7" d="M367.7 305.907H242.7C245.8 303.91 247.7 300.416 247.7 296.722V109.324C247.7 105.331 250 101.636 253.7 100.039H378.7C375 101.736 372.7 105.331 372.7 109.324V296.722C372.7 300.416 370.9 303.91 367.7 305.907Z" fill="white"/>
<path d="M364.1 156.049C362.3 155.15 357 156.148 355.6 156.248C354.2 156.448 353.5 156.348 352.3 156.448C351 156.548 350.9 156.448 350.7 155.949C350.5 155.45 348.3 155.749 347.7 155.549C347.1 155.35 342.2 156.348 336.8 156.348C331.5 156.348 335 156.448 334.3 155.549C333.5 154.651 331 156.248 330.4 156.348C329.8 156.448 328.5 156.448 328.3 155.549C328.1 154.551 326.7 156.548 325.4 156.348C324.1 156.148 327 154.052 325.1 154.95C323.2 155.949 319 156.348 319 156.348L320.4 157.346C315.3 157.446 310.9 157.546 310 157.546C309.1 157.646 308.6 157.646 307.6 156.049C306.6 154.451 306.7 156.448 302.9 157.446C299.1 158.445 298.2 158.145 296.5 157.247C294.7 156.348 293.8 157.346 292.5 157.446C291.1 157.646 290.4 157.546 289.2 157.646C287.9 157.746 287.8 157.646 287.6 157.147C287.4 156.648 285.2 156.947 284.6 156.747C284 156.548 279.1 157.546 273.7 157.546C268.4 157.546 271.9 157.646 271.2 156.747C270.4 155.849 267.9 157.446 267.3 157.546C266.7 157.646 265.4 157.646 265.2 156.747C265 155.749 263.6 157.746 262.3 157.546C261 157.346 263.9 155.25 262 156.148C260.1 157.147 255.9 157.546 255.9 157.546" stroke="#263238" stroke-miterlimit="10" stroke-linecap="round" stroke-linejoin="round"/>
<path d="M288.7 118.709C288.1 118.509 283.2 119.507 277.8 119.507C272.5 119.507 276 119.607 275.3 118.709C274.5 117.81 272 119.407 271.4 119.507C270.8 119.607 269.5 119.607 269.3 118.709C269.1 117.71 267.7 119.707 266.4 119.507C265.1 119.308 268 117.211 266.1 118.109C264.2 119.108 260 119.507 260 119.507" stroke="#263238" stroke-miterlimit="10" stroke-linecap="round" stroke-linejoin="round"/>
<path d="M364.1 259.083C363.5 258.883 358.6 259.881 353.2 259.881C347.9 259.881 351.4 259.981 350.7 259.083C349.9 258.184 347.4 259.781 346.8 259.881C346.2 259.981 344.9 259.981 344.7 259.083C344.5 258.084 343.1 260.081 341.8 259.881C340.5 259.682 343.4 257.585 341.5 258.484C339.6 259.482 335.4 259.881 335.4 259.881" stroke="#263238" stroke-miterlimit="10" stroke-linecap="round" stroke-linejoin="round"/>
<path d="M255.6 167.529C256.3 167.23 257.1 167.23 257.8 167.529C258.1 167.33 258.4 167.13 258.7 166.93C259.2 167.529 260.2 167.43 260.9 167.03C261.6 166.631 262.3 166.132 263.1 166.232C263 166.531 263 166.93 262.9 167.23C264 167.13 265 166.831 266 166.331C265.8 166.631 266 167.03 266.3 167.13C266.6 167.33 266.9 167.33 267.2 167.23C270.3 167.13 273.4 167.03 276.4 166.93C276.9 166.93 277.5 166.93 278 166.831C278.2 166.93 278.3 167.13 278.2 167.33C279.4 167.13 280.5 166.531 281.3 165.633C281.1 166.331 281.7 167.03 282.3 167.13C283 167.33 283.7 167.13 284.3 166.731C284.6 166.631 284.9 166.431 285.2 166.431C285.5 166.431 285.9 166.631 285.9 166.93C286.5 166.631 287.1 167.13 287.7 167.33C288.1 167.43 288.5 167.43 288.9 167.43C293.1 167.23 297.2 167.13 301.4 166.93L304.5 167.529C304.5 167.529 308.8 167.13 310.6 166.132C312.5 165.133 309.5 167.23 310.9 167.529C312.2 167.729 313.6 165.732 313.8 166.731C314 167.729 315.3 167.629 315.9 167.529C316.5 167.43 319 165.832 319.8 166.731C320.6 167.629 317 167.529 322.3 167.529C327.6 167.529 332.6 166.531 333.2 166.731C333.8 166.93 336 166.631 336.2 167.13C336.4 167.629 336.5 167.729 337.8 167.629C339.1 167.529 339.7 167.529 341.1 167.43C342.5 167.23 343.4 166.331 345.1 167.23C346.9 168.128 347.8 168.328 351.5 167.43C355.3 166.431 355.2 164.434 356.2 166.032C357.2 167.629 363 167.629 363.9 167.529" stroke="#263238" stroke-miterlimit="10" stroke-linecap="round" stroke-linejoin="round"/>
<path d="M363.9 147.862C363.5 147.962 364.3 147.962 363.9 147.862ZM363.9 147.862C363.3 147.662 364.5 147.163 363.9 147.462C363.8 147.163 358.3 146.963 357.9 146.963C357.6 146.963 357.3 147.163 357 147.263C356.4 147.562 355.7 147.762 355 147.662C354.3 147.462 353.8 146.763 354 146.164C353.2 147.063 352.1 147.662 350.9 147.862C351 147.662 350.8 147.462 350.7 147.362C350.2 147.362 349.6 147.362 349.1 147.462C346 147.562 342.9 147.662 339.9 147.762C339.6 147.762 339.2 147.762 339 147.662C338.7 147.462 338.6 147.063 338.7 146.863C337.7 147.263 336.7 147.562 335.6 147.762C335.7 147.462 335.7 147.063 335.8 146.763C335 146.664 334.3 147.163 333.6 147.562C332.9 147.962 331.9 148.061 331.4 147.462C331.1 147.662 330.8 147.862 330.5 148.061C329.8 147.762 329 147.762 328.3 148.061L319.3 147.163C319.3 147.163 315.1 147.263 314.5 146.863C313.8 146.464 311.5 147.762 311.5 147.762H308.5L304.7 147.862V147.163C304.7 147.163 302.4 147.662 300.2 147.762C298 147.862 297.5 148.161 297.4 147.163C297.3 146.164 294.5 147.462 292.3 147.862C290.1 148.361 290.5 148.261 289.9 147.163C289.2 146.065 288.4 147.263 287.2 147.762C286 148.261 284.4 148.361 283.4 147.762C282.4 147.163 278.1 148.161 276.3 148.161C274.5 148.161 276.2 147.662 275.9 146.863C275.5 145.965 274.3 148.261 273.1 148.161C271.9 148.061 274.1 145.865 272.4 146.065C270.7 146.264 267.9 147.962 267.9 147.962" stroke="#263238" stroke-miterlimit="10" stroke-linecap="round" stroke-linejoin="round"/>
<path d="M356.4 176.315C355.7 176.315 354.8 175.816 354.9 174.418C354.4 174.019 354 174.718 353.5 175.317C353.1 175.816 352.3 175.916 352.2 174.918C351.5 175.517 350.8 175.517 350.1 174.718C349.7 175.916 348.9 176.016 348.2 175.916C342.3 175.716 336.4 175.417 330.5 175.217C330.1 175.217 329.7 175.217 329.3 174.918C329 174.718 328.8 174.418 328.5 174.319C327.8 174.019 327.1 175.217 326.5 176.016C325.8 176.715 324.8 176.615 324.7 175.017C323.9 176.515 322.8 176.914 321.9 176.016C321.5 176.315 321 176.715 320.6 176.515C320.2 176.315 319.7 175.417 319.8 174.518C319.4 176.116 318.6 176.914 317.8 177.114C317 177.314 316.2 177.014 315.4 176.615L308.3 176.914C306 177.114 303.6 176.914 301.3 176.315C301.4 176.814 300.6 177.014 300.1 177.014C298.5 177.014 297 177.114 295.4 177.114C295 177.114 294.7 177.114 294.4 177.014C294.1 176.914 293.8 176.515 293.9 176.215C293 176.515 291.9 176.515 291 176.315C290.4 176.016 289.9 176.615 289.3 176.814C288.8 177.014 288.2 177.014 287.7 177.014C285 177.014 282.3 176.914 279.6 176.914C278.9 176.914 278 176.814 277.7 176.315C276.5 176.814 275.4 177.513 274.5 178.312C274.7 177.713 274.6 177.114 274.5 176.615C273.7 176.914 272.9 177.414 272.2 177.913C272.1 176.814 272 175.716 271.9 174.618C270.3 174.818 269.2 176.315 267.6 176.515C266.7 176.615 265.8 176.215 264.9 176.415C264.2 176.615 263.3 177.114 262.8 176.615C262.7 176.515 262.6 176.315 262.4 176.215C262.2 176.116 261.9 176.215 261.7 176.315C259.7 177.114 257.4 177.214 255.3 176.615" stroke="#263238" stroke-miterlimit="10" stroke-linecap="round" stroke-linejoin="round"/>
<path d="M254.5 196.783C254.5 196.783 257.9 196.383 259.4 195.385C260.9 194.387 258.5 196.483 259.6 196.783C260.7 196.983 261.8 194.986 261.9 195.984C262.1 196.983 263.1 196.883 263.6 196.783C264 196.683 266.1 195.086 266.7 195.984C267.3 196.883 264.5 196.783 268.7 196.783C273 196.783 277 195.784 277.4 195.984C277.8 196.184 279.6 195.884 279.8 196.383C280 196.883 280.1 196.983 281.1 196.883C282.1 196.783 282.7 196.783 283.8 196.683C284.9 196.483 285.6 195.585 287 196.483C288.4 197.382 289.1 197.582 292.2 196.683C295.2 195.685 295.1 193.688 295.9 195.285C296.7 196.883 297.1 196.883 297.9 196.783C298.6 196.683 302.2 196.583 306.3 196.583L313.7 196.383C315.8 196.983 318.1 196.883 320.1 196.084C320.3 195.984 320.6 195.884 320.8 195.984C321 196.084 321.1 196.284 321.2 196.383C321.7 196.883 322.6 196.384 323.3 196.184C324.2 195.984 325.1 196.384 326 196.284C327.6 196.084 328.7 194.586 330.3 194.387C330.4 195.485 330.5 196.583 330.6 197.681C331.3 197.082 332.1 196.683 332.9 196.383C333.1 196.983 333.1 197.582 332.9 198.081C333.8 197.182 334.9 196.483 336.1 196.084C336.5 196.583 337.3 196.683 338 196.683C340.7 196.683 343.4 196.783 346.1 196.783C346.7 196.783 347.2 196.783 347.7 196.583C348.3 196.284 348.9 195.784 349.4 196.084C350.4 196.284 351.4 196.284 352.3 195.984C352.2 196.284 352.4 196.583 352.8 196.783C353.1 196.883 353.5 196.883 353.8 196.883C355.4 196.883 356.9 196.783 358.5 196.783C359 196.783 359.8 196.583 359.7 196.084C362 196.683 361.7 196.883 364 196.683" stroke="#263238" stroke-miterlimit="10" stroke-linecap="round" stroke-linejoin="round"/>
<path d="M364.1 186C361.1 186.998 362.3 186.699 360.9 185.8C359.5 184.902 358.8 185.9 357.7 186C356.6 186.2 356.1 186.1 355 186.2C354 186.3 353.9 186.2 353.7 185.701C353.5 185.201 351.7 185.501 351.3 185.301C350.9 185.102 346.9 186.1 342.6 186.1C338.3 186.1 341.2 186.2 340.6 185.301C340 184.403 337.9 186 337.5 186.1C337.1 186.2 336 186.2 335.8 185.301C335.6 184.303 334.5 186.3 333.5 186.1C332.4 185.9 334.8 183.804 333.3 184.702C331.8 185.701 328.4 186.1 328.4 186.1L319.9 185.8C317.8 185.8 315.7 185.8 313.6 185.9C312.9 185.9 312 185.401 312.1 184.003C311.6 183.604 311.2 184.303 310.7 184.902C310.3 185.401 309.5 185.501 309.4 184.503C308.7 185.102 308 185.102 307.3 184.303C306.9 185.501 306.1 185.601 305.4 185.501C299.5 185.301 293.6 185.002 287.7 184.802C287.3 184.802 286.9 184.802 286.5 184.503C286.2 184.303 286 184.003 285.7 183.903C285 183.604 284.3 184.802 283.7 185.601C283 186.3 282 186.2 281.9 184.602C281.1 186.1 280 186.499 279.1 185.601C278.7 185.9 278.2 186.3 277.8 186.1C277.4 185.9 276.9 185.002 277 184.103C276.6 185.701 275.8 186.499 275 186.699C274.2 186.899 273.4 186.599 272.6 186.2" stroke="#263238" stroke-miterlimit="10" stroke-linecap="round" stroke-linejoin="round"/>
<path d="M364.1 120.506C358.2 120.306 352.3 120.007 346.4 119.807C346 119.807 345.6 119.807 345.2 119.507C344.9 119.308 344.7 119.008 344.4 118.908C343.7 118.609 343 119.807 342.4 120.606C341.7 121.304 340.7 121.205 340.6 119.607C339.8 121.105 338.7 121.504 337.8 120.606C337.4 120.905 336.9 121.304 336.5 121.105C336.1 120.905 335.6 120.007 335.7 119.108C335.3 120.705 334.5 121.504 333.7 121.704C332.9 121.904 332.1 121.604 331.3 121.205" stroke="#263238" stroke-miterlimit="10" stroke-linecap="round" stroke-linejoin="round"/>
<path d="M364.1 267.469C358.2 267.269 352.3 266.97 346.4 266.77C346 266.77 345.6 266.77 345.2 266.47C344.9 266.271 344.7 265.971 344.4 265.871C343.7 265.572 343 266.77 342.4 267.569C341.7 268.267 340.7 268.168 340.6 266.57C339.8 268.068 338.7 268.467 337.8 267.569C337.4 267.868 336.9 268.267 336.5 268.068C336.1 267.868 335.6 266.969 335.7 266.071C335.3 267.668 334.5 268.467 333.7 268.667C332.9 268.866 332.1 268.567 331.3 268.168" stroke="#263238" stroke-miterlimit="10" stroke-linecap="round" stroke-linejoin="round"/>
<path d="M254.5 215.552C257.1 216.151 260 216.052 262.5 215.253C262.8 215.153 263.1 215.053 263.4 215.153C263.6 215.253 263.7 215.453 263.9 215.552C264.5 216.052 265.6 215.552 266.5 215.353C267.6 215.153 268.8 215.552 269.9 215.453C271.9 215.253 273.3 213.755 275.3 213.556C275.4 214.654 275.5 215.752 275.7 216.85C276.5 216.251 277.5 215.852 278.6 215.552C278.8 216.151 278.8 216.751 278.6 217.25C279.7 216.351 281.1 215.652 282.6 215.253C283.1 215.752 284.1 215.852 285 215.852C288.3 215.852 291.7 215.952 295 215.952C295.7 215.952 296.4 215.952 297 215.752C297.7 215.453 298.5 214.953 299.1 215.253C300.3 215.453 301.6 215.453 302.7 215.153C302.6 215.453 302.9 215.752 303.3 215.952C303.7 216.052 304.1 216.052 304.6 216.052C306.5 216.052 308.5 215.952 310.4 215.952C311.1 215.952 312 215.752 311.9 215.253C314.7 215.852 317.7 216.052 320.6 215.852L327.7 216.251C328.7 215.952 329.9 215.952 330.9 216.251C331.3 216.052 331.8 215.852 332.2 215.652C332.9 216.251 334.3 216.151 335.4 215.752C336.4 215.353 337.4 214.854 338.6 214.953C338.5 215.253 338.4 215.652 338.4 215.952C339.9 215.852 341.4 215.552 342.8 215.053C342.5 215.353 342.8 215.752 343.2 215.852C343.6 216.052 344.1 216.052 344.5 215.952C348.9 215.852 353.2 215.752 357.6 215.652C358.4 215.652 359.1 215.652 359.9 215.552C360.2 215.652 360.3 215.852 360.2 216.052C361.9 215.852 363.1 215.253 364.3 214.354C364.1 215.053 363.4 215.752 364.3 215.852" stroke="#263238" stroke-miterlimit="10" stroke-linecap="round" stroke-linejoin="round"/>
<path d="M363.9 205.568C363.2 205.269 364.6 205.868 363.9 206.068C363.3 206.267 364.6 206.267 363.9 206.267C360.6 206.267 356.1 206.167 352.7 206.167C351.8 206.167 350.8 206.068 350.3 205.568C348.8 206.068 347.4 206.766 346.3 207.565C346.5 206.966 346.5 206.367 346.3 205.868C345.2 206.167 344.3 206.667 343.4 207.166C343.3 206.068 343.2 204.969 343 203.871C341 204.071 339.6 205.568 337.6 205.768C336.5 205.868 335.3 205.469 334.2 205.668C333.3 205.868 332.2 206.367 331.6 205.868C331.4 205.768 331.3 205.568 331.1 205.469C330.8 205.369 330.5 205.469 330.2 205.568C327.7 206.367 324.8 206.467 322.2 205.868L319.3 206.167C313.4 206.367 307.5 206.467 301.6 206.667C301.1 206.667 300.5 206.667 300 206.567C299.1 206.367 298.3 205.968 297.5 206.167C297.4 205.868 296.9 205.668 296.5 205.668C296.1 205.668 295.7 205.868 295.3 205.968C294.4 206.267 293.4 206.467 292.5 206.367C291.6 206.167 290.8 205.469 291 204.869C289.8 205.768 288.3 206.367 286.6 206.567C286.7 206.367 286.5 206.167 286.3 206.068C285.5 206.068 284.8 206.068 284 206.167C279.6 206.267 275.3 206.367 270.9 206.467C270.4 206.467 270 206.467 269.6 206.367C269.2 206.167 269 205.768 269.2 205.568C267.8 205.968 266.3 206.267 264.8 206.467C264.9 206.167 265 205.768 265 205.469C263.9 205.369 262.8 205.868 261.8 206.267C260.8 206.667 259.4 206.766 258.6 206.167C258.2 206.367 257.7 206.567 257.3 206.766C256.3 206.467 255.1 206.467 254.1 206.766" stroke="#263238" stroke-miterlimit="10" stroke-linecap="round" stroke-linejoin="round"/>
<path d="M254.3 225.736C255.1 225.936 256 226.036 256.8 225.936C257.6 225.836 258.5 225.437 258.9 224.638C258.8 225.137 259.2 225.536 259.7 225.636C260.2 225.736 260.6 225.536 261.1 225.337C262.1 225.736 263.2 225.536 264 224.837C264.1 225.636 265.2 225.736 265.9 225.337C266.6 224.937 267.3 224.338 268 224.538C268.3 224.638 268.5 224.738 268.8 224.837C269.2 225.037 269.7 225.037 270.1 225.037C276.2 225.137 282.3 225.237 288.5 225.437C289.2 225.437 290 225.437 290.5 224.837C291.2 225.237 292 225.237 292.7 224.937C292.8 225.437 293.6 225.437 294 225.137C294.4 224.837 295 224.438 295.4 224.738C295.3 225.437 296.3 225.736 297 225.736C299.2 225.736 301.4 225.736 303.6 225.736L305.9 225.636C306.9 225.337 308.1 225.337 309.1 225.636C309.5 225.437 310 225.237 310.4 225.037C311.1 225.636 312.5 225.536 313.6 225.137C314.6 224.738 315.6 224.238 316.8 224.338C316.7 224.638 316.6 225.037 316.6 225.337C318.1 225.237 319.6 224.937 321 224.438C320.7 224.738 321 225.137 321.4 225.237C321.8 225.437 322.3 225.437 322.7 225.337C327.1 225.237 331.4 225.137 335.8 225.037C336.6 225.037 337.3 225.037 338.1 224.937C338.4 225.037 338.5 225.237 338.4 225.437C340.1 225.237 341.6 224.638 342.8 223.739C342.6 224.438 343.4 225.137 344.3 225.237C345.2 225.437 346.2 225.237 347.1 224.837C347.5 224.738 347.9 224.538 348.3 224.538C348.7 224.538 349.2 224.738 349.3 225.037C350.1 224.738 351 225.237 351.8 225.437C352.3 225.536 352.9 225.536 353.4 225.536" stroke="#263238" stroke-miterlimit="10" stroke-linecap="round" stroke-linejoin="round"/>
<path d="M403 237.917V358.822C403 360.819 401.4 362.516 399.4 362.716C399.3 362.716 399.1 362.716 399 362.716H222.4C222.3 362.716 222.1 362.716 222 362.716C220 362.516 218.4 360.819 218.4 358.822V237.917L297 292.13L301.3 295.125L308.2 299.917L315.5 295.125L320 292.13L403 237.917Z" fill="#B0DAF0"/>
<path opacity="0.2" d="M403 357.324V358.523C403 360.719 401.4 362.616 399.4 362.816C399.3 362.816 399.1 362.816 399 362.816H222.4C222.3 362.816 222.1 362.816 222 362.816C220 362.616 218.4 360.719 218.4 358.523V357.324L297 292.229L301.3 295.225L308.2 300.017L315.5 295.225L320 292.229L403 357.324Z" fill="black"/>
<path d="M403 357.724V358.822C403 361.018 401.2 362.815 399 362.815H222.4C220.2 362.815 218.4 361.018 218.4 358.822V357.724L301.3 295.025L303 293.727C306.1 291.331 310.4 291.331 313.5 293.627L315.5 295.025L403 357.724Z" fill="#B0DAF0"/>
<path d="M105.417 362.786H112.917L112.917 201.746H105.417L105.417 362.786Z" fill="#263238"/>
<path d="M132.9 203.971H88.6V186.699C88.6 180.809 93.4 176.116 99.2 176.116H122.2C128.1 176.116 132.8 180.908 132.8 186.699V203.971H132.9Z" fill="#B0DAF0"/>
<path opacity="0.4" d="M132.9 203.971H113V185.6C113 180.309 117.3 176.016 122.6 176.016H123.3C128.6 176.016 132.9 180.309 132.9 185.6V203.971Z" fill="black"/>
<path d="M112.9 203.472H132.8L139.4 214.654C141.4 218.048 138.6 220.844 133.1 220.844C127.6 220.844 121.5 218.048 119.5 214.654L112.9 203.472Z" fill="#B0DAF0"/>
<path opacity="0.2" d="M112.9 203.472H132.8L139.4 214.654C141.4 218.048 138.6 220.844 133.1 220.844C127.6 220.844 121.5 218.048 119.5 214.654L112.9 203.472Z" fill="black"/>
<path opacity="0.4" d="M112.9 187.298H116.3L119.8 202.473H112.9V187.298Z" fill="white"/>
<path opacity="0.4" d="M117.5 190.393H119.8L125.7 202.473H123.9L117.5 190.393Z" fill="white"/>
<path opacity="0.4" d="M122.1 193.488H123.5L131.4 202.474H130.3L122.1 193.488Z" fill="white"/>
<path d="M106 190.093V172.422V170.325H104.9H103.6V172.422H104.9V190.093C104.2 190.393 103.7 191.391 103.7 192.589C103.7 194.087 104.5 195.185 105.5 195.185C106.5 195.185 107.3 193.987 107.3 192.589C107.2 191.491 106.7 190.493 106 190.093Z" fill="#B0DAF0"/>
<path opacity="0.7" d="M106 190.093V172.422V170.325H104.9H103.6V172.422H104.9V190.093C104.2 190.393 103.7 191.391 103.7 192.589C103.7 194.087 104.5 195.185 105.5 195.185C106.5 195.185 107.3 193.987 107.3 192.589C107.2 191.491 106.7 190.493 106 190.093Z" fill="white"/>
<path opacity="0.2" d="M112.9 222.341L105.4 217.648V362.814H112.9V222.341Z" fill="white"/>
<path d="M86.6 362.815H136.9C136.9 362.815 138.8 360.319 126.7 360.019C126.7 360.019 137.6 350.435 135.9 347.739C134.2 345.043 125.6 355.027 125.6 355.027C125.6 355.027 130.9 344.145 129.1 341.05C127.2 337.955 121.5 351.433 121.5 351.433C121.5 351.433 119.8 343.546 117.4 342.847C115 342.148 109.1 351.732 109.1 351.732C109.1 351.732 101.3 331.365 97.3 332.863C93.2 334.36 99.9 348.338 99.9 348.338C99.9 348.338 92.9 342.048 88.6 344.245C84.3 346.441 91.4 355.626 91.4 355.626C91.4 355.626 86.2 357.323 86.6 362.815Z" fill="#B0DAF0"/>
<path opacity="0.4" d="M86.6 362.815H136.9C136.9 362.815 138.8 360.319 126.7 360.019C126.7 360.019 137.6 350.435 135.9 347.739C134.2 345.043 125.6 355.027 125.6 355.027C125.6 355.027 130.9 344.145 129.1 341.05C127.2 337.955 121.5 351.433 121.5 351.433C121.5 351.433 119.8 343.546 117.4 342.847C115 342.148 109.1 351.732 109.1 351.732C109.1 351.732 101.3 331.365 97.3 332.863C93.2 334.36 99.9 348.338 99.9 348.338C99.9 348.338 92.9 342.048 88.6 344.245C84.3 346.441 91.4 355.626 91.4 355.626C91.4 355.626 86.2 357.323 86.6 362.815Z" fill="white"/>
<path d="M191 110.123C191 110.123 193.6 106.828 198.5 107.627C203.5 108.426 213.5 117.112 212.6 126.496C211.7 135.881 208.8 144.467 205.8 144.867C205.8 144.867 203.2 141.472 189.4 141.971C175.6 142.371 178.1 133.685 180.3 126.696C182.5 119.707 181.9 106.828 191 110.123Z" fill="#263238"/>
<path d="M209.5 148.86C212.2 151.456 221.2 166.532 222.2 167.231C223.3 167.93 223.7 161.041 223.7 161.041L228.6 160.142C228.6 160.142 231.2 176.815 224.2 175.318C216.3 173.62 205.9 159.144 205.9 159.144C205.9 159.144 206.6 154.451 207 152.754C207.3 151.057 209.5 148.86 209.5 148.86Z" fill="#B0DAF0"/>
<path opacity="0.4" d="M224.1 175.317C218 174.02 210.4 165.134 207.3 161.14C206.4 159.942 205.8 159.243 205.8 159.243C205.8 159.243 206.2 156.747 206.6 154.751C206.7 153.952 206.9 153.353 207 152.854C207.4 151.156 209.5 148.96 209.5 148.96C212.3 151.556 221.2 166.631 222.2 167.33C223.3 168.029 223.7 161.14 223.7 161.14L228.6 160.242C228.6 160.142 231.2 176.815 224.1 175.317Z" fill="white"/>
<path opacity="0.2" d="M207.3 161.041C206.4 159.843 205.8 159.144 205.8 159.144C205.8 159.144 206.2 156.648 206.6 154.651C207.1 155.849 207.6 157.946 207.3 161.041Z" fill="black"/>
<path d="M205.1 161.24C203.8 165.034 202.8 168.429 202 171.324C199.5 180.509 198.5 186.4 197.8 194.187L167 190.892C166.2 168.928 167 156.847 167.7 150.757C168.5 144.367 169.5 144.068 169.5 144.068C169.5 144.068 176.5 143.569 182.6 143.668C187.3 143.968 192 144.467 196.6 145.466C201 146.264 205.3 147.462 209.5 148.86C208.8 150.857 208.1 152.754 207.4 154.551C206.6 156.947 205.8 159.144 205.1 161.24Z" fill="#B0DAF0"/>
<path opacity="0.4" d="M209.5 148.86C208.7 150.857 208.1 152.754 207.4 154.551C206.6 156.947 205.8 159.143 205.1 161.14C203.8 164.934 202.8 168.328 202 171.224C199.5 180.409 198.4 186.299 197.8 194.087L167 190.792C166.9 188.097 166.8 185.501 166.8 183.105C166.7 177.713 166.7 172.921 166.7 168.928C166.7 168.229 166.7 167.53 166.7 166.831C166.8 160.142 167.2 155.349 167.5 152.055C167.6 151.556 167.6 151.156 167.6 150.757C168.4 144.367 169.4 144.167 169.4 144.167C169.4 144.167 176.4 143.668 182.5 143.768C187.2 144.068 191.9 144.567 196.5 145.565C200.9 146.264 205.2 147.462 209.5 148.86Z" fill="white"/>
<path opacity="0.2" d="M170.6 153.153C170.6 153.153 169.9 161.24 166.8 166.831C166.9 160.142 167.3 155.349 167.6 152.055C168.5 152.254 169.5 152.654 170.6 153.153Z" fill="black"/>
<path opacity="0.2" d="M196.3 181.907L187.2 180.808C187.2 180.808 185.8 183.504 183.7 183.804C181.5 184.103 176.5 180.209 176.5 180.209C176.5 180.209 172 182.805 166.9 183.204C166.8 177.813 166.8 173.021 166.8 169.027C169.6 169.227 176.8 170.225 187 174.818C188.2 175.317 196.3 181.907 196.3 181.907Z" fill="black"/>
<path d="M225.4 354.029L219.1 355.128L216.5 346.541L214.1 338.654L221.4 336.158L223.5 345.643L225.4 354.029Z" fill="#E4897B"/>
<path opacity="0.2" d="M223.5 345.843L216.5 346.741L214.1 338.754L221.4 336.158L223.5 345.843Z" fill="black"/>
<path d="M183.3 356.924H176.9L175.8 347.939L174.9 339.752L182.5 338.454L182.9 348.238L183.3 356.924Z" fill="#E4897B"/>
<path opacity="0.2" d="M182.9 348.338L175.8 348.039L174.9 339.752L182.5 338.454L182.9 348.338Z" fill="black"/>
<path d="M224.1 340.851L213.7 342.648C203.2 316.59 195.8 294.925 190.5 276.854C187.7 267.17 185.3 258.484 183.6 250.796L183.9 279.151V342.948H173.7C148.1 221.144 166.4 190.693 166.4 190.693L196.9 188.197C198.1 192.79 198.9 200.278 199.5 205.37L200.9 215.553L212.9 277.353L224.1 340.851Z" fill="#263238"/>
<path opacity="0.2" d="M190.6 276.854C187.8 267.169 185.6 258.483 183.9 250.796C183.9 250.796 184.1 235.92 185.9 223.64C185.8 223.64 190.3 258.683 190.6 276.854Z" fill="black"/>
<path d="M167 185.9L198.5 187.697L198 193.089L166.2 191.192L167 185.9Z" fill="black"/>
<path d="M188.7 187.299C188.3 186.899 187.8 186.6 187.2 186.6L183.3 186.4C182.3 186.3 181.5 187.099 181.5 188.097V190.593C181.5 191.092 181.7 191.692 182.1 192.091C182.5 192.49 182.9 192.69 183.4 192.79C183.5 192.79 183.5 192.79 183.6 192.79L187.5 192.989C188.5 193.089 189.3 192.291 189.3 191.292V188.796C189.4 188.297 189.1 187.798 188.7 187.299ZM187.5 191.991L183.6 191.791C183.3 191.791 183.1 191.692 182.9 191.492C182.7 191.292 182.6 190.993 182.6 190.793V188.297C182.6 187.798 183 187.498 183.5 187.498L187.4 187.698H187.5C187.7 187.698 188 187.898 188.1 187.997C188.3 188.197 188.4 188.497 188.4 188.696V189.096C188.3 189.096 188.3 189.096 188.2 189.096L187.1 188.996C186.7 188.996 186.5 189.295 186.5 189.595C186.5 189.994 186.8 190.294 187.2 190.294L188.3 190.394C188.3 190.394 188.3 190.394 188.4 190.394V191.192C188.4 191.692 188 191.991 187.5 191.991Z" fill="white"/>
<path d="M175.4 352.532C175.4 351.833 183.6 352.432 183.6 352.432C183.6 352.432 188.7 357.524 193.6 358.722C198.5 359.92 195.8 362.816 190.3 362.816C184.8 362.816 180.6 362.816 176.7 362.816C172.8 362.816 175.2 359.521 175.4 352.532Z" fill="#263238"/>
<path d="M187.9 354.529C186.8 354.529 184.9 353.73 184.5 353.531C184.5 353.531 184.4 353.531 184.4 353.431C184.4 353.331 184.4 353.331 184.4 353.231C184.4 353.131 185.1 351.234 186.2 350.735C186.6 350.635 186.9 350.635 187.3 350.735C187.7 350.935 187.9 351.134 187.8 351.434C187.8 351.833 187.2 352.332 186.5 352.632C187.2 352.532 187.9 352.632 188.3 352.832C188.5 352.931 188.7 353.131 188.7 353.431C188.8 353.93 188.7 354.13 188.5 354.329C188.5 354.429 188.2 354.529 187.9 354.529ZM185.3 353.331C186.5 353.83 188 354.329 188.4 353.93C188.4 353.93 188.5 353.83 188.5 353.531C188.5 353.431 188.4 353.331 188.3 353.231C187.6 352.931 186.2 353.131 185.3 353.331ZM186.7 351.134C186.6 351.134 186.5 351.134 186.4 351.234C185.8 351.534 185.3 352.332 185 353.031C186.2 352.532 187.4 351.933 187.4 351.534C187.4 351.434 187.2 351.334 187.1 351.234C187 351.134 186.9 351.134 186.7 351.134Z" fill="#263238"/>
<path d="M217.4 352.532C217.4 351.833 225.6 352.432 225.6 352.432C225.6 352.432 230.7 357.524 235.6 358.722C240.5 359.92 237.8 362.816 232.3 362.816C226.8 362.816 222.6 362.816 218.7 362.816C214.8 362.816 217.2 359.521 217.4 352.532Z" fill="#263238"/>
<path d="M229.9 354.529C228.8 354.529 226.9 353.73 226.5 353.531C226.5 353.531 226.4 353.531 226.4 353.431C226.4 353.331 226.4 353.331 226.4 353.231C226.4 353.131 227.1 351.234 228.2 350.735C228.6 350.635 228.9 350.635 229.3 350.735C229.7 350.935 229.9 351.134 229.8 351.434C229.8 351.833 229.2 352.332 228.5 352.632C229.2 352.532 229.9 352.632 230.3 352.832C230.5 352.931 230.7 353.131 230.7 353.431C230.8 353.93 230.7 354.13 230.5 354.329C230.5 354.429 230.2 354.529 229.9 354.529ZM227.3 353.331C228.5 353.83 230 354.329 230.4 353.93C230.4 353.93 230.5 353.83 230.5 353.531C230.5 353.431 230.4 353.331 230.3 353.231C229.6 352.931 228.2 353.131 227.3 353.331ZM228.7 351.134C228.6 351.134 228.5 351.134 228.4 351.234C227.8 351.534 227.3 352.332 227 353.031C228.2 352.532 229.4 351.933 229.4 351.534C229.4 351.434 229.2 351.334 229.1 351.234C229 351.134 228.9 351.134 228.7 351.134Z" fill="#263238"/>
<path d="M218.4 141.972C218.4 141.972 209.6 150.059 209.3 153.054C208.9 156.049 206.9 167.231 206.9 167.231H222.1C222.1 167.231 224.5 156.548 225.7 154.651C226.9 152.754 233.2 147.463 233.2 147.463L218.4 141.972Z" fill="#B0DAF0"/>
<path opacity="0.7" d="M218.4 141.972C218.4 141.972 209.6 150.059 209.3 153.054C208.9 156.049 206.9 167.231 206.9 167.231H222.1C222.1 167.231 224.5 156.548 225.7 154.651C226.9 152.754 233.2 147.463 233.2 147.463L218.4 141.972Z" fill="white"/>
<path d="M174.2 143.869C174.2 143.869 179 152.455 189.4 153.653C199.8 154.851 203.4 147.064 203.4 147.064C203.4 147.064 189.4 141.972 174.2 143.869Z" fill="#EEC1BB"/>
<path d="M189.7 151.955C183.2 148.561 182.3 144.867 182.3 144.867C188.2 142.371 187.2 133.984 187.2 133.984L194.8 138.577C194.1 139.875 193.5 140.973 193.2 141.872C191.3 146.864 193.5 147.762 193.5 147.762C193.9 151.057 189.7 151.955 189.7 151.955Z" fill="#EEC1BB"/>
<path opacity="0.2" d="M194.8 138.577C194.1 139.875 193.5 140.973 193.2 141.872C187.7 139.775 187.2 133.885 187.2 133.885L194.8 138.577Z" fill="black"/>
<path d="M198.9 113.916C206.2 116.212 207.3 120.805 205.5 128.493C203.2 138.077 199 144.068 190.5 139.175C179 132.686 186.8 110.122 198.9 113.916Z" fill="#EEC1BB"/>
<path d="M200.9 126.696C200.9 126.696 201.3 128.893 202.1 130.39C202.1 130.39 201.2 131.189 199.9 130.59L200.9 126.696Z" fill="#D4827D"/>
<path d="M196.6 124.7C196.4 125.299 196 125.698 195.6 125.598C195.2 125.499 195 124.9 195.2 124.301C195.4 123.702 195.8 123.302 196.2 123.402C196.6 123.502 196.8 124.101 196.6 124.7Z" fill="#263238"/>
<path d="M196.1 123.402L197.6 123.302C197.5 123.202 196.5 124.102 196.1 123.402Z" fill="#263238"/>
<path d="M204.2 126.696C204 127.295 203.6 127.694 203.2 127.595C202.8 127.495 202.6 126.896 202.8 126.297C203 125.698 203.4 125.298 203.8 125.398C204.2 125.498 204.4 126.097 204.2 126.696Z" fill="#263238"/>
<path d="M203.6 125.398L205.1 125.298C205.1 125.298 204.1 126.198 203.6 125.398Z" fill="#263238"/>
<path d="M198.2 119.608C198.2 119.608 196.2 118.708 194.7 119.708" stroke="#263238" stroke-width="0.7247" stroke-miterlimit="10" stroke-linecap="round" stroke-linejoin="round"/>
<path d="M203.6 121.005C203.6 121.005 205 120.905 206.3 122.503" stroke="#263238" stroke-width="0.7247" stroke-miterlimit="10" stroke-linecap="round" stroke-linejoin="round"/>
<path d="M197.9 133.086C197.2 133.785 196.2 135.382 196.2 135.382C196 135.282 195.9 135.282 195.7 135.182C193.6 134.284 193 133.186 192.9 132.287C192.8 131.788 193 131.289 193.1 130.889C193.3 130.49 193.5 130.19 193.5 130.19C194.3 131.289 196.2 132.287 197.2 132.786C197.7 132.986 197.9 133.086 197.9 133.086Z" fill="#263238"/>
<path d="M197.2 132.786L196.7 133.485C194.8 132.686 193.5 131.788 193.2 130.989C193.4 130.59 193.6 130.29 193.6 130.29C194.4 131.388 196.2 132.287 197.2 132.786Z" fill="white"/>
<path d="M195.8 135.182C193.7 134.284 193.1 133.186 193 132.287C193.7 132.587 194.5 133.086 195.1 133.685C195.5 134.184 195.7 134.683 195.8 135.182Z" fill="#DE5753"/>
<path d="M187.1 123.701C187.1 123.701 192.4 118.809 193.3 114.016C193.3 114.016 209.6 112.718 205.7 127.594C205.7 127.594 211.2 115.015 198.8 110.821C186.4 106.628 180.6 124.899 185.4 132.387C185.4 132.387 183.8 126.796 187.1 123.701Z" fill="#263238"/>
<path d="M187.8 125.598C188.1 124.4 187.5 122.004 185.3 121.604C183 121.105 180.4 125.398 185.7 128.294C186.4 128.793 187.1 128.094 187.8 125.598Z" fill="#EEC1BB"/>
<path d="M228.3 160.142L227.9 156.947C227.9 156.947 228.6 154.95 228.3 154.151C227.6 152.554 223.3 150.557 222.6 150.158C221.9 149.759 218.9 154.651 219.3 155.649C219.7 156.647 224.7 158.844 224.7 158.844V160.841L228.3 160.142Z" fill="#EEC1BB"/>
<path d="M201.8 174.518L197.7 168.628C197.7 168.628 187.1 169.826 186.9 170.126L183.6 177.713C183.4 178.113 183.6 178.512 184 178.612L197.5 183.204C197.8 183.304 198.2 183.204 198.3 182.805L201.7 175.217C201.9 175.018 201.8 174.518 201.8 174.518Z" fill="#B0DAF0"/>
<path opacity="0.1" d="M201.9 174.818C200.6 175.317 198 175.916 195.7 175.417C192.2 174.618 187 170.225 187 170.225C187.1 169.926 197.8 168.628 197.8 168.628L201.9 174.518C201.8 174.518 201.9 174.618 201.9 174.818Z" fill="black"/>
<path opacity="0.1" d="M187.6 170.325C187.6 170.325 194.8 173.919 201.8 174.718C201.9 174.818 193.8 172.122 187.6 170.325Z" fill="black"/>
<path d="M168.3 173.72L180 174.618C180 174.618 181.9 173.42 182.9 173.62C183.9 173.82 189.2 176.815 189.4 177.614C189.5 178.412 186.7 182.206 185.4 182.007C184.1 181.807 179.9 178.612 179.6 178.113L165.6 178.412L168.3 173.72Z" fill="#EEC1BB"/>
<path d="M170.4 144.068C171.8 144.567 172.9 148.86 169.2 156.348C169.2 156.348 164.2 167.63 165.2 169.527C166.3 171.823 176.4 173.72 176.4 173.72L175.6 180.21C175.6 180.21 162.2 182.107 158.4 173.72C154.6 165.234 165.6 142.57 170.4 144.068Z" fill="#B0DAF0"/>
<path opacity="0.4" d="M170.4 144.068C171.8 144.567 172.9 148.86 169.2 156.348C169.2 156.348 164.2 167.63 165.2 169.527C166.3 171.823 176.4 173.72 176.4 173.72L175.6 180.21C175.6 180.21 162.2 182.107 158.4 173.72C154.6 165.234 165.6 142.57 170.4 144.068Z" fill="white"/>
<path d="M197.5 110.422C197.5 110.422 203.5 106.229 210.2 115.514C216.9 124.899 212.8 133.984 212.8 133.984" stroke="#263238" stroke-width="0.5" stroke-miterlimit="10" stroke-linecap="round" stroke-linejoin="round"/>
</g>
<defs>
<clipPath id="clip0_1651_12275">
<rect width="500" height="372" fill="white"/>
</clipPath>
</defs>
</svg>
