<svg width="63" height="63" viewBox="0 0 63 63" fill="none" xmlns="http://www.w3.org/2000/svg">
<rect x="0.5" y="0.5" width="62" height="62" rx="31" stroke="#35B6EE"/>
<path d="M29.0234 44.207C27.8281 44.207 26.8203 43.7969 26 42.9766C25.5781 42.5547 25.2617 42.0977 25.0508 41.6055C24.8398 41.1133 24.7344 40.5742 24.7344 40C24.7344 39.4258 24.8398 38.8867 25.0508 38.3945C25.2617 37.9023 25.5781 37.4453 26 37.0234C26.8203 36.2031 27.8281 35.793 29.0234 35.793C30.2305 35.793 31.2383 36.2031 32.0586 37.0234C32.8906 37.8555 33.3125 38.8516 33.3125 40.0117C33.3125 41.1836 32.8906 42.168 32.0586 42.9883C31.2383 43.7969 30.2305 44.2188 29.0234 44.2188V44.207ZM35.0469 45.332V40.0117C35.0469 39.7891 35.0352 39.5781 35.0234 39.3672C35.0117 39.1562 34.9883 38.9453 34.9648 38.7227L34.8477 38.2891L34.6016 37.6914L34.3672 37.1641L34.1094 36.6836L33.3242 35.8047C32.7617 35.1836 32.0703 34.7852 31.3672 34.4922C30.6641 34.1992 29.8789 34.0586 29.0234 34.0586C27.3477 34.0586 25.9297 34.6445 24.7695 35.8047C23.5859 36.9766 23 38.3828 23 40.0117C23 41.6641 23.5859 43.0586 24.7695 44.2305C25.9297 45.3789 27.3477 45.9766 29.0234 45.9766C30.1602 45.9766 31.2031 45.6836 32.1523 45.1094C32.3516 44.9805 32.5508 44.8398 32.75 44.6875C32.9492 44.5352 33.1367 44.3711 33.3125 44.1953V45.3438C33.3125 46.2344 32.8906 46.9961 32.0469 47.6641C31.6016 48.0156 31.1211 48.2852 30.5938 48.4492C30.0664 48.6133 29.4922 48.6953 28.8711 48.6953C28.625 48.6953 28.4258 48.7773 28.2617 48.9531C28.0859 49.1289 28.0039 49.3398 28.0039 49.5859C28.0039 49.8203 28.0859 50.0195 28.2617 50.1953C28.4258 50.3711 28.625 50.4531 28.8711 50.4531C30.5469 50.4531 31.9883 49.9727 33.1953 49C34.4375 48.0039 35.0586 46.7852 35.0586 45.3555L35.0469 45.332Z" fill="#35B6EE"/>
<path d="M43.5692 44.2188C42.3856 44.2188 41.3895 43.8086 40.5692 42.9883C39.7372 42.1445 39.327 41.1484 39.327 39.9883C39.327 38.8398 39.7372 37.8438 40.5692 36.9883C41.3895 36.168 42.3856 35.7578 43.5692 35.7578C44.7528 35.7578 45.7489 36.168 46.5692 36.9883C47.3895 37.8203 47.7997 38.8164 47.7997 39.9766C47.7997 41.1602 47.3895 42.1562 46.5692 42.9766C45.7489 43.7969 44.7528 44.207 43.5692 44.207V44.2188ZM43.5692 34C41.9286 34 40.5223 34.5859 39.3505 35.7578C38.1786 36.9297 37.5927 38.3359 37.5927 39.9766C37.5927 41.6289 38.1786 43.0352 39.3505 44.1953C40.5223 45.3672 41.9286 45.9531 43.5692 45.9531C45.2216 45.9531 46.6161 45.3555 47.7763 44.1953C48.9481 43.0234 49.5458 41.6289 49.5458 39.9766C49.5458 38.3359 48.9481 36.9414 47.7763 35.7578C46.6161 34.5977 45.2216 34 43.5692 34Z" fill="#35B6EE"/>
<path d="M19.2109 27.8359L18.5312 27.7891C18.4023 27.7539 18.2734 27.7188 18.1445 27.6836L17.7344 27.5898C17.6289 27.5547 17.5234 27.5195 17.418 27.4844C17.3125 27.4492 17.207 27.4141 17.1016 27.3789C17.0664 27.3438 17.0195 27.3086 16.9609 27.2734L16.7852 27.168L16.7031 27.1211C16.668 27.0977 16.6328 27.0742 16.5977 27.0391C16.5391 27.0039 16.5039 26.9805 16.4922 26.9688C16.4922 26.957 16.4805 26.9453 16.4688 26.9336C16.4102 26.8984 16.3516 26.8516 16.293 26.7812C16.2578 26.7344 16.2109 26.6875 16.1523 26.6406L15.9883 26.5C15.6016 26.0781 15.2969 25.6094 15.0859 25.0938C14.875 24.5781 14.7695 24.0273 14.7695 23.4297V13.8906C14.7695 13.668 14.6875 13.457 14.5117 13.2578C14.3242 13.082 14.1133 13 13.8906 13C13.668 13 13.457 13.0703 13.2578 13.2578C13.082 13.4336 13 13.6445 13 13.8906V23.5586C13 25.2344 13.6562 26.6641 14.8516 27.8477C16.0586 29.0312 17.4883 29.6055 19.1406 29.6055H19.1992C19.4336 29.6055 19.6328 29.5352 19.8086 29.3594C19.9844 29.1953 20.0781 28.9844 20.0781 28.7266C20.0781 28.4805 19.9844 28.2812 19.8086 28.1172C19.6445 27.9531 19.4453 27.8594 19.2227 27.8477L19.2109 27.8359Z" fill="#35B6EE"/>
<path d="M27.8622 27.8125C26.6786 27.8125 25.6825 27.4023 24.8622 26.582C24.0302 25.7383 23.62 24.7422 23.62 23.582C23.62 22.4336 24.0302 21.4375 24.8622 20.582C25.6825 19.7617 26.6786 19.3516 27.8622 19.3516C29.0458 19.3516 30.0419 19.7617 30.8622 20.582C31.6825 21.4141 32.0927 22.4102 32.0927 23.5703C32.0927 24.7539 31.6825 25.75 30.8622 26.5703C30.0419 27.3906 29.0458 27.8008 27.8622 27.8008V27.8125ZM27.8622 17.5938C26.2216 17.5938 24.8153 18.1797 23.6434 19.3516C22.4716 20.5234 21.8856 21.9297 21.8856 23.5703C21.8856 25.2227 22.4716 26.6289 23.6434 27.7891C24.8153 28.9609 26.2216 29.5469 27.8622 29.5469C29.5145 29.5469 30.9091 28.9492 32.0692 27.7891C33.2411 26.6172 33.8387 25.2227 33.8387 23.5703C33.8387 21.9297 33.2411 20.5352 32.0692 19.3516C30.9091 18.1914 29.5145 17.5938 27.8622 17.5938Z" fill="#35B6EE"/>
</svg>
